<?xml version="1.0" standalone="no"?>
<!DOCTYPE svg PUBLIC "-//W3C//DTD SVG 20010904//EN"
 "http://www.w3.org/TR/2001/REC-SVG-20010904/DTD/svg10.dtd">
<svg version="1.0" xmlns="http://www.w3.org/2000/svg"
 width="1079.000000pt" height="1079.000000pt" viewBox="0 0 1079.000000 1079.000000"
 preserveAspectRatio="xMidYMid meet">
<metadata>
Created by potrace 1.14, written by Peter Selinger 2001-2017
</metadata>
<g transform="translate(0.000000,1079.000000) scale(0.100000,-0.100000)"
fill="#000000" stroke="none">
<path d="M5054 9001 c-5 -3 -9 -22 -9 -41 0 -34 -1 -35 -40 -38 -40 -3 -41 -4
-37 -37 l4 -35 -113 0 c-63 0 -121 -5 -129 -10 -10 -6 -11 -10 -2 -10 6 0 12
-6 12 -14 0 -8 -6 -17 -12 -19 -10 -4 -10 -6 0 -6 29 -2 -2 -21 -34 -21 -33 0
-34 -1 -34 -39 0 -39 0 -39 -37 -38 -38 2 -38 2 -41 -41 l-3 -44 -67 4 -67 3
-5 40 -5 40 -72 -4 c-71 -3 -73 -2 -74 20 -1 21 -2 20 -10 -6 -5 -16 -8 -43
-7 -60 3 -28 1 -30 -32 -30 l-35 0 -1 -65 c0 -85 -7 -100 -42 -100 -16 0 -31
2 -33 4 -2 3 -2 38 1 78 4 40 2 76 -3 79 -7 5 -57 5 -87 0 -4 -1 -4 -17 -2
-36 4 -29 1 -35 -20 -40 -13 -4 -31 -5 -39 -3 -12 2 -14 -23 -17 -148 l-3
-151 -54 -2 c-30 0 -60 -2 -67 -3 -8 -2 -15 12 -18 37 -5 40 -5 40 -45 38 -22
-1 -42 -2 -45 -2 -3 -1 -4 -35 -2 -76 l4 -75 -37 0 c-36 0 -37 0 -33 38 l3 37
-78 3 c-42 2 -85 -2 -95 -7 -9 -6 -11 -11 -4 -11 9 0 12 -25 11 -92 -1 -109
-5 -122 -41 -126 -25 -3 -27 0 -30 39 -3 42 -4 43 -38 44 -32 0 -35 3 -37 30
0 17 -2 39 -2 50 -1 13 -4 16 -9 8 -4 -6 -22 -13 -40 -15 l-33 -3 -1 -140 c0
-77 -3 -146 -6 -152 -2 -7 -17 -13 -33 -13 -16 0 -30 6 -30 13 -1 6 -2 23 -3
37 -1 22 -5 25 -41 25 l-40 0 -5 -75 -5 -75 -38 0 c-20 0 -37 -4 -38 -10 0 -5
0 -58 1 -117 l1 -108 -35 0 c-35 0 -36 -1 -36 -40 l0 -40 -40 0 -40 0 0 -115
0 -115 -40 0 -40 0 0 -115 c0 -85 -3 -115 -12 -116 -7 -1 -24 -2 -38 -3 l-25
-1 -2 -154 -2 -155 -38 0 -38 -1 -3 -118 -3 -118 -35 3 -34 3 0 -395 0 -395
35 0 36 0 1 -175 c0 -130 3 -169 11 -152 7 16 18 22 38 20 27 -2 27 -4 28 -66
0 -91 4 -99 46 -94 l35 4 0 -76 c0 -81 0 -81 58 -76 22 1 22 0 22 -114 l0
-116 -40 0 -40 0 0 -235 0 -235 40 0 40 0 0 235 0 235 40 0 c39 0 40 1 40 35
l0 35 115 0 115 0 0 -35 c0 -31 3 -35 25 -35 14 0 25 -5 25 -11 0 -8 4 -8 14
0 8 7 32 11 52 9 37 -3 38 -4 37 -40 0 -38 0 -38 38 -38 39 0 39 0 39 -40 l0
-40 40 0 40 0 0 -40 0 -40 40 0 40 0 0 -114 0 -115 38 -3 37 -3 0 -142 c0 -78
-4 -145 -8 -149 -4 -4 -20 -7 -36 -6 -27 1 -30 -3 -33 -36 l-3 -37 -113 -3
-114 -3 4 38 3 38 -80 5 -81 5 1 33 c1 31 -1 32 -37 32 -38 0 -38 0 -38 40 l0
40 -40 0 -40 0 0 40 0 40 -40 0 c-40 0 -40 0 -40 40 0 39 0 39 -37 37 -37 -2
-38 -3 -41 -44 l-3 -43 40 0 41 0 0 -40 c0 -39 1 -40 35 -40 19 0 34 -3 34 -7
-1 -5 -1 -22 0 -40 1 -28 4 -31 26 -27 22 4 25 1 26 -28 2 -31 2 -31 6 -5 6
41 25 32 21 -10 l-3 -38 40 0 c40 0 40 0 43 -40 l3 -40 74 1 c50 1 75 -2 76
-10 1 -6 2 -22 3 -36 1 -25 2 -25 119 -30 64 -3 118 -2 118 3 1 4 2 22 3 40 1
29 4 32 34 35 l32 3 -2 -228 -3 -228 -27 -3 c-18 -2 -28 1 -28 10 0 10 -2 10
-8 1 -4 -7 -8 -31 -7 -54 l0 -41 85 -2 85 -1 0 40 c0 38 2 40 30 40 l30 0 3
-184 c2 -141 -1 -186 -10 -193 -8 -5 1 -8 25 -9 20 -1 43 -2 50 -3 8 -1 13
-25 14 -76 3 -101 4 -108 10 -92 3 8 28 12 75 12 l70 0 -4 -35 c-4 -33 -3 -34
37 -37 l40 -3 0 -70 c0 -83 6 -94 41 -87 36 7 45 -11 42 -88 l-2 -65 37 -3
c35 -3 37 -5 37 -38 0 -19 5 -34 10 -35 78 -6 155 0 158 12 3 8 10 17 16 21 8
5 7 8 -1 8 -7 0 -13 7 -13 15 0 10 11 15 35 15 l35 0 0 -114 0 -115 33 -3 c25
-2 33 -8 35 -26 2 -13 -1 -28 -6 -35 -8 -9 3 -12 44 -13 l54 -1 0 39 c0 36 2
38 26 34 27 -5 71 11 60 21 -5 5 18 33 27 33 3 0 3 -10 0 -22 -3 -13 -2 -20 2
-16 5 5 8 24 7 43 -1 21 3 33 8 30 6 -3 7 1 4 9 -3 9 -17 16 -30 16 -38 0 -28
15 11 16 22 0 31 -3 23 -8 -10 -6 -10 -8 0 -8 6 0 12 -11 12 -25 0 -14 -6 -25
-12 -25 -10 0 -9 -3 1 -9 11 -7 11 -9 0 -14 -10 -4 -10 -6 -1 -6 6 -1 12 -8
12 -16 0 -13 38 -22 73 -16 4 0 7 -34 7 -78 l0 -78 36 4 36 4 -4 -41 c-4 -43
-3 -43 52 -40 44 2 45 3 42 44 -2 32 -1 34 33 33 26 -1 35 -6 34 -17 -1 -8 -1
-26 0 -40 1 -23 4 -26 35 -22 34 4 35 4 38 -38 l3 -43 43 -1 42 -1 0 43 0 43
39 -5 40 -5 3 42 c3 40 5 42 36 44 31 1 32 0 32 -38 0 -39 0 -39 40 -39 l40 0
0 -40 0 -40 40 0 40 0 0 40 c0 39 1 40 35 40 34 0 35 -1 35 -39 0 -39 1 -40
38 -43 33 -3 37 -6 40 -33 5 -51 8 -55 41 -45 33 9 32 10 35 -44 1 -28 4 -30
41 -30 36 -1 40 -4 40 -26 0 -14 -4 -28 -10 -32 -19 -14 5 -20 82 -19 43 0 83
0 88 0 6 1 9 18 7 43 l-4 41 34 -6 c19 -3 41 -1 49 4 8 5 9 9 3 9 -8 0 -11 23
-10 68 l1 67 34 3 c33 3 33 3 29 -32 -5 -43 1 -46 90 -46 73 0 96 8 83 29 -5
7 -6 22 -4 32 5 17 20 19 237 21 l231 3 0 35 c0 33 2 35 39 40 36 5 39 7 41
43 l2 37 -44 0 -44 0 3 37 3 38 185 1 c102 1 190 2 195 3 6 1 9 18 7 40 -4 38
-6 40 -40 43 l-37 3 -3 147 -3 147 43 3 c41 3 42 4 43 38 l0 35 112 0 113 0 1
100 c2 138 -1 130 38 133 33 3 33 3 29 -32 -2 -21 0 -36 7 -36 5 0 3 -5 -5
-10 -13 -8 -13 -10 2 -10 9 0 18 5 20 12 3 7 14 9 31 4 24 -6 27 -10 24 -41
-3 -25 0 -36 12 -39 19 -6 69 -2 77 7 3 3 6 55 5 114 -1 59 3 122 8 138 9 29
9 29 11 5 2 -24 3 -23 10 5 l8 30 1 -27 c2 -41 21 -34 21 7 0 31 -2 34 -27 32
l-28 -2 -3 118 -3 117 31 0 30 0 0 -69 c0 -91 4 -99 44 -94 31 3 33 1 34 -27
1 -42 9 -50 48 -50 32 0 34 -2 34 -35 0 -28 4 -35 23 -39 55 -11 57 -8 57 77
l0 79 119 -4 119 -3 1 88 2 87 -40 0 -41 0 0 75 0 75 -40 0 -40 0 0 40 0 40
-40 0 c-27 0 -40 4 -39 13 1 6 1 77 0 157 l-1 146 -32 -1 c-31 0 -33 2 -33 35
0 33 -2 35 -40 40 l-40 5 -2 310 -2 309 -41 -3 -40 -3 0 150 0 150 43 -1 c40
0 42 1 39 27 -2 15 3 35 10 44 10 12 10 14 1 8 -7 -4 -13 -3 -13 2 0 6 -18 12
-40 14 -44 4 -55 -9 -46 -56 4 -24 2 -26 -30 -26 l-34 0 0 149 0 150 38 3 c34
3 37 5 34 31 -2 15 1 34 7 41 8 9 1 13 -31 15 -23 1 -45 4 -49 6 -10 7 -17
-15 -14 -45 2 -28 -10 -40 -43 -40 -23 0 -23 1 -20 115 2 72 -1 116 -7 116 -5
1 -23 2 -40 3 l-30 1 -3 149 -3 149 29 -6 c15 -3 33 -2 40 2 9 6 12 92 10 361
l-3 354 -35 0 c-32 1 -35 3 -35 33 0 39 -5 44 -47 46 -28 2 -33 6 -36 30 -2
17 1 27 10 27 9 0 9 3 -2 10 -8 5 -48 10 -88 10 l-73 0 1 267 c1 177 -2 268
-9 273 -6 3 -24 5 -41 4 -29 -2 -30 0 -30 37 0 37 -2 39 -32 40 -18 1 -36 1
-40 0 -5 0 -8 34 -8 77 l0 78 -36 -4 -36 -4 4 76 c3 82 1 86 -52 86 -26 0 -29
4 -32 38 -3 35 -5 37 -38 37 l-35 1 -3 82 c-2 66 -5 80 -18 75 -8 -3 -22 1
-31 8 -12 10 -15 10 -9 2 4 -7 3 -13 -3 -13 -15 0 -26 51 -13 59 17 11 -10 26
-48 26 -31 0 -35 3 -38 28 -2 17 1 27 10 27 10 0 10 2 -1 9 -7 5 -29 6 -48 4
l-34 -5 4 41 c2 25 0 41 -7 42 -6 0 -24 2 -41 2 l-30 2 -3 78 -3 77 -41 0
c-40 0 -41 0 -36 33 3 17 2 41 -3 52 -4 11 -8 15 -8 10 -1 -6 -17 -12 -36 -13
l-35 -3 4 67 c2 41 9 70 18 75 10 7 8 9 -7 10 -11 1 -24 1 -29 0 -31 -6 -55
11 -58 42 l-3 32 -72 3 c-48 2 -74 7 -75 15 0 7 -1 23 -2 37 -1 22 -5 25 -41
25 -39 0 -40 1 -41 35 -1 60 -2 62 -23 50 -38 -20 -50 -12 -53 32 l-3 43 -40
-2 c-22 0 -44 -2 -49 -2 -5 -1 -6 -15 -2 -31 5 -26 2 -32 -20 -40 -14 -6 -30
-7 -35 -4 -6 3 -10 36 -9 72 1 37 1 72 1 78 -1 6 -17 11 -38 10 l-38 -1 0 70
0 70 -39 5 c-39 5 -40 6 -40 45 l-1 40 -45 0 c-39 0 -45 -3 -43 -20 6 -46 -6
-64 -43 -67 l-36 -3 -2 -110 -1 -110 -33 -3 c-23 -2 -33 1 -31 10 1 7 1 43 0
81 l-1 67 -40 0 c-22 0 -40 5 -40 10 0 6 4 10 8 10 5 0 7 12 5 28 l-4 27 -75
-3 c-41 -2 -75 0 -75 5 -1 4 -3 22 -4 38 -2 17 -3 34 -4 38 -1 9 -224 8 -237
-2z m53 -87 c-3 -3 -12 -4 -19 -1 -8 3 -5 6 6 6 11 1 17 -2 13 -5z m93 -14 c0
-5 -22 -10 -50 -10 -29 0 -50 -5 -50 -11 0 -11 -24 -39 -34 -39 -21 0 16 51
45 63 24 10 89 7 89 -3z m106 -60 c13 0 24 -6 25 -12 0 -10 2 -10 6 0 3 7 24
12 54 12 l49 0 0 -79 0 -80 43 -4 c38 -4 37 -4 -8 -3 l-50 1 -3 78 -3 77 -36
0 c-30 0 -35 -3 -30 -20 6 -25 -14 -22 -30 5 -10 17 -12 17 -13 3 0 -9 -3 -18
-7 -21 -5 -2 -2 -2 5 -1 6 2 12 -3 12 -11 0 -8 -9 -15 -20 -15 -23 0 -27 28
-7 49 10 11 9 13 -5 8 -14 -5 -18 -1 -17 16 0 12 3 16 6 10 2 -7 16 -13 29
-13z m-215 -29 c-12 -12 -27 -21 -33 -20 -10 0 -10 2 0 6 6 2 12 9 12 15 0 14
34 39 38 28 2 -5 -6 -18 -17 -29z m-57 23 c9 -3 16 -10 16 -16 0 -5 -5 -6 -11
-2 -6 3 -16 0 -21 -7 -8 -11 -9 -10 -4 3 3 10 -1 18 -12 21 -16 4 -16 5 0 6 9
0 23 -2 32 -5z m-39 -24 c-3 -6 1 -18 10 -27 14 -13 16 -28 11 -71 -6 -56 -16
-83 -16 -44 0 11 -4 24 -10 27 -14 8 -13 125 1 125 5 0 7 -5 4 -10z m-113 -56
c19 -6 26 -54 8 -54 -5 0 -9 10 -7 22 2 27 -17 33 -79 23 -28 -4 -44 -12 -47
-23 -4 -13 -5 -11 -6 5 0 12 5 23 12 26 20 6 99 8 119 1z m-87 -32 c-14 -10
-17 -32 -4 -32 5 0 7 -5 3 -11 -4 -8 -9 -7 -15 2 -15 23 -10 49 9 49 9 0 13
-4 7 -8z m579 -34 c1 -17 7 -33 15 -36 11 -4 13 2 8 27 -4 18 -2 31 3 31 6 0
10 -18 10 -40 0 -38 2 -40 30 -40 17 0 30 -4 30 -10 0 -13 -6 -12 -54 1 -29 8
-41 8 -46 -1 -4 -6 -8 17 -9 51 -1 35 2 60 6 56 4 -4 7 -22 7 -39z m-604 -22
c0 -4 -7 -6 -15 -2 -8 3 -15 1 -15 -5 0 -6 -7 -9 -15 -5 -8 3 -15 1 -15 -4 0
-6 -8 -10 -17 -11 -11 0 -13 -3 -5 -6 6 -2 12 -20 12 -39 0 -19 5 -34 12 -34
6 0 9 -2 6 -5 -3 -3 -16 -1 -29 4 -13 5 -18 10 -11 10 14 1 16 37 2 46 -16 10
-11 35 8 36 10 0 12 3 5 6 -24 9 -13 19 18 17 19 -1 32 3 36 13 5 12 7 12 14
1 5 -7 9 -17 9 -22z m170 14 c23 0 28 -4 25 -20 -3 -14 2 -20 15 -20 10 0 22
-4 25 -10 3 -5 19 -7 34 -4 16 4 32 1 35 -5 5 -7 -3 -10 -21 -10 -50 2 -94 20
-104 43 -9 20 -9 20 -6 -4 3 -22 0 -25 -28 -25 -22 0 -31 5 -32 18 -1 9 6 18
15 18 15 1 15 2 0 6 -10 2 -18 9 -18 15 0 5 7 7 16 4 9 -3 29 -6 44 -6z m47
-12 c-3 -8 -6 -5 -6 6 -1 11 2 17 5 13 3 -3 4 -12 1 -19z m53 12 c0 -5 -4 -10
-10 -10 -5 0 -10 5 -10 10 0 6 5 10 10 10 6 0 10 -4 10 -10z m36 -19 c-9 -14
-45 -20 -53 -9 -3 7 -1 8 5 4 7 -4 12 -2 12 3 0 6 9 11 21 11 11 0 18 -4 15
-9z m444 -11 c0 -5 -18 -10 -40 -10 -22 0 -40 5 -40 10 0 6 18 10 40 10 22 0
40 -4 40 -10z m-797 -42 c-8 -46 -13 -48 -13 -5 0 21 4 37 10 37 5 0 7 -14 3
-32z m74 26 c-3 -3 -12 -4 -19 -1 -8 3 -5 6 6 6 11 1 17 -2 13 -5z m319 -19
c2 -28 -11 -33 -20 -8 -4 9 -1 20 6 25 7 4 13 8 13 8 0 0 1 -11 1 -25z m404 5
c0 -5 -7 -10 -15 -10 -8 0 -15 5 -15 10 0 6 7 10 15 10 8 0 15 -4 15 -10z
m-876 -16 c9 -3 16 -17 16 -30 0 -19 -5 -24 -22 -23 -18 1 -19 2 -5 6 26 7 17
39 -11 36 -12 -2 -22 2 -22 7 0 11 20 13 44 4z m33 -16 c-3 -8 -6 -5 -6 6 -1
11 2 17 5 13 3 -3 4 -12 1 -19z m270 -36 c-3 -12 -5 -11 -6 6 -1 29 -21 29
-21 0 0 -15 -3 -19 -10 -12 -7 7 -6 19 2 36 12 25 13 25 26 7 7 -11 11 -27 9
-37z m23 16 c0 -36 -4 -35 -14 5 -4 16 -2 27 4 27 5 0 10 -14 10 -32z m110 2
c0 -16 -4 -30 -10 -30 -11 0 -14 43 -3 53 11 12 13 8 13 -23z m-457 3 c-20 -4
-22 -9 -18 -59 2 -33 0 -52 -5 -49 -6 4 -10 31 -10 61 0 53 1 54 28 53 23 -2
23 -2 5 -6z m492 -3 c3 -5 -1 -10 -10 -10 -9 0 -13 5 -10 10 3 6 8 10 10 10 2
0 7 -4 10 -10z m-227 -41 c-10 -7 -10 -9 0 -9 7 0 12 -13 12 -31 0 -16 -4 -28
-9 -25 -5 3 -7 16 -4 29 4 15 2 19 -5 12 -5 -5 -12 -19 -15 -30 -2 -11 -4 1
-3 26 1 39 3 45 19 41 15 -4 16 -7 5 -13z m232 11 c0 -5 -4 -10 -10 -10 -5 0
-10 5 -10 10 0 6 5 10 10 10 6 0 10 -4 10 -10z m223 3 c-13 -2 -33 -2 -45 0
-13 2 -3 4 22 4 25 0 35 -2 23 -4z m-706 -38 l-6 -35 95 0 c52 0 94 -3 94 -7
0 -5 -38 -6 -85 -4 -86 3 -103 -3 -118 -39 -3 -10 -6 -7 -6 8 -1 12 3 22 7 22
5 0 8 20 7 45 -1 25 2 45 8 45 5 0 7 -15 4 -35z m193 15 c0 -5 -4 -10 -10 -10
-5 0 -10 5 -10 10 0 6 5 10 10 10 6 0 10 -4 10 -10z m10 -42 c0 -19 -2 -20
-10 -8 -13 19 -13 30 0 30 6 0 10 -10 10 -22z m-330 -59 l0 -27 147 2 c107 1
147 4 150 14 4 9 -17 12 -80 12 -59 0 -87 -4 -90 -12 -4 -10 -6 -10 -6 0 -1
17 12 20 107 24 78 3 82 2 82 -18 0 -12 -7 -25 -16 -28 -9 -3 -88 -6 -176 -6
l-160 0 6 24 c3 14 2 28 -4 31 -6 4 -11 -8 -12 -27 l-1 -33 -4 33 c-3 25 -9
32 -27 32 -21 0 -22 -3 -16 -45 5 -32 3 -45 -6 -49 -11 -4 -13 5 -9 39 5 56
-10 60 -19 5 -3 -23 -11 -39 -18 -37 -7 1 -13 -6 -16 -15 -2 -13 4 -16 30 -15
18 1 36 6 40 12 5 6 8 3 8 -7 0 -21 -30 -30 -90 -26 -42 3 -45 5 -48 35 -3 31
-2 32 40 35 45 3 43 2 47 61 1 16 9 18 71 15 68 -2 70 -3 70 -29z m80 11 c-13
-9 -13 -10 0 -11 9 0 6 -5 -8 -11 -17 -9 -26 -8 -35 2 -10 10 -8 12 7 6 13 -4
17 -2 13 8 -4 9 1 16 11 19 23 5 30 -2 12 -13z m-63 -12 c-3 -8 -6 -5 -6 6 -1
11 2 17 5 13 3 -3 4 -12 1 -19z m-100 -25 c-3 -10 -5 -4 -5 12 0 17 2 24 5 18
2 -7 2 -21 0 -30z m-352 -29 c-5 -2 -9 -27 -8 -56 1 -29 -2 -59 -7 -67 -6 -11
-9 8 -10 57 0 62 2 72 18 71 9 0 13 -2 7 -5z m42 -45 c-1 -34 4 -53 14 -59 10
-7 16 -4 20 8 8 23 33 22 41 -3 5 -17 6 -15 7 8 1 23 5 27 29 26 15 0 21 -3
15 -6 -7 -2 -13 -12 -13 -21 0 -15 2 -15 10 -2 8 13 10 12 10 -2 0 -27 -30
-22 -31 5 -1 21 -1 21 -8 -3 -6 -21 -13 -25 -49 -27 -23 -1 -42 2 -42 6 0 5
-9 11 -20 14 -11 3 -20 11 -19 19 0 10 2 10 6 0 11 -27 20 0 13 43 -5 33 -3
45 5 45 9 0 12 -17 12 -51z m-30 -6 c-3 -10 -5 -4 -5 12 0 17 2 24 5 18 2 -7
2 -21 0 -30z m188 -33 c3 -5 1 -10 -4 -10 -6 0 -11 5 -11 10 0 6 2 10 4 10 3
0 8 -4 11 -10z m3 -32 c-3 -7 -20 -14 -39 -15 -19 -1 -25 1 -14 4 11 3 24 9
30 14 13 13 27 11 23 -3z m-158 -30 c19 -32 20 -32 26 -10 5 16 13 22 33 21
l26 -1 -25 -8 c-24 -8 -24 -8 -2 -9 16 -1 22 -7 21 -23 -1 -17 -2 -19 -6 -5
-2 9 -11 17 -19 17 -8 0 -12 -4 -9 -10 3 -6 -1 -7 -9 -4 -12 5 -16 0 -16 -17
-1 -18 -4 -14 -15 16 -8 22 -15 41 -15 43 0 2 -4 1 -9 -2 -5 -3 -11 1 -15 9
-10 28 14 15 34 -17z m-60 -10 c0 -4 -10 -8 -21 -8 -17 0 -20 -5 -16 -25 4
-24 3 -25 -14 -9 -10 9 -16 21 -13 25 3 5 0 9 -5 9 -14 0 -14 -16 1 -39 9 -15
8 -22 -5 -36 -15 -14 -17 -15 -17 -1 0 9 5 16 12 16 9 0 9 3 0 12 -13 13 -16
50 -5 61 9 10 83 5 83 -5z m40 -54 c0 -20 5 -34 12 -34 7 0 5 -5 -5 -12 -9 -7
-18 -29 -20 -48 -3 -19 -3 -9 -1 22 2 31 -1 60 -6 63 -5 3 -7 12 -3 20 3 8 1
15 -5 15 -5 0 -13 -8 -16 -17 -6 -15 -8 -15 -16 -3 -15 23 -12 30 10 30 11 0
20 5 20 11 0 8 5 8 15 -1 8 -7 15 -28 15 -46z m17 -6 c-3 -8 -6 -5 -6 6 -1 11
2 17 5 13 3 -3 4 -12 1 -19z m76 5 c-7 -2 -21 -2 -30 0 -10 3 -4 5 12 5 17 0
24 -2 18 -5z m-547 -32 c-2 -3 -1 -36 3 -73 4 -37 4 -65 0 -63 -3 3 -9 32 -12
66 -6 64 -13 82 -26 60 -7 -10 -9 -10 -14 3 -4 9 1 16 11 19 21 4 43 -3 38
-12z m278 3 c9 -3 16 -14 17 -23 1 -9 4 -6 9 9 5 17 8 19 9 8 1 -11 9 -18 24
-19 12 0 16 -3 10 -6 -7 -2 -13 -10 -13 -17 0 -7 -7 -13 -15 -13 -12 0 -12 3
-2 16 10 14 10 14 -3 5 -8 -6 -25 -10 -37 -8 -13 2 -23 -1 -23 -6 0 -15 -36
-12 -50 5 -11 13 -6 15 34 15 25 0 46 3 46 8 0 10 -82 3 -94 -9 -5 -5 -4 -15
4 -24 11 -13 10 -14 -4 -9 -9 3 -16 17 -16 30 0 22 4 24 53 26 l52 1 -55 7
-55 7 47 1 c25 1 53 -1 62 -4z m196 -66 c0 -45 -14 -78 -26 -65 -4 4 -2 13 4
19 7 7 12 29 12 50 0 21 2 38 5 38 3 0 5 -19 5 -42z m-495 11 c-4 -5 -3 -29 0
-53 6 -39 10 -45 36 -48 29 -5 40 6 17 15 -7 3 0 6 15 6 16 1 26 -3 22 -9 -4
-6 6 -10 22 -9 25 0 26 1 8 9 -19 8 -19 9 3 9 22 1 30 -13 12 -24 -5 -3 -35
-6 -67 -6 -55 -1 -56 -2 -28 -13 23 -10 26 -14 15 -22 -22 -13 -59 -12 -64 3
-4 9 1 10 21 2 14 -5 28 -7 31 -4 4 3 -4 8 -16 12 -15 4 -25 16 -29 35 -3 16
-14 33 -24 39 -11 5 -19 17 -18 27 0 14 2 14 8 -2 5 -13 10 -16 15 -8 4 6 2
21 -5 33 -8 15 -8 19 0 15 6 -4 11 -2 11 4 0 6 5 8 10 5 6 -4 8 -11 5 -16z
m345 -54 c6 3 10 0 10 -7 0 -8 -13 -14 -31 -14 -19 -1 -27 1 -19 6 8 5 11 20
7 41 l-6 34 15 -33 c8 -18 19 -30 24 -27z m-114 -22 c-3 -26 -12 -50 -19 -55
-9 -6 -9 -8 1 -8 6 0 12 -4 12 -8 0 -16 -30 -9 -31 7 0 12 -3 11 -9 -4 -7 -17
-9 -17 -9 -3 -1 11 -6 15 -16 12 -8 -4 -15 -2 -15 4 0 5 -12 8 -27 6 -28 -4
-28 -4 -3 5 14 4 43 6 65 5 33 -3 35 -2 11 4 -43 10 -44 30 -1 28 22 -1 35 3
35 11 0 7 -7 10 -15 7 -8 -4 -15 -1 -15 5 0 6 7 11 15 11 8 0 15 5 15 10 0 6
3 10 6 10 4 0 4 -21 0 -47z m34 37 c0 -5 -4 -10 -10 -10 -5 0 -10 5 -10 10 0
6 5 10 10 10 6 0 10 -4 10 -10z m33 -3 c7 4 5 -2 -3 -13 -8 -10 -16 -21 -17
-23 -2 -2 -3 9 -2 25 0 16 3 23 6 16 2 -6 10 -9 16 -5z m107 -70 c16 -17 -1
-47 -26 -45 -23 2 -36 28 -14 28 6 0 10 -4 10 -10 0 -5 4 -10 8 -10 4 0 7 26
6 58 0 31 1 41 3 22 2 -19 8 -39 13 -43z m37 46 c-3 -10 -5 -4 -5 12 0 17 2
24 5 18 2 -7 2 -21 0 -30z m-17 7 c0 -11 -4 -20 -10 -20 -5 0 -10 9 -10 20 0
11 5 20 10 20 6 0 10 -9 10 -20z m-162 -49 c2 -36 -11 -61 -25 -48 -7 7 7 87
15 87 4 0 8 -18 10 -39z m-363 19 c-3 -5 -1 -10 4 -10 6 0 11 4 11 9 0 5 16 9
35 9 26 0 34 -4 32 -16 -4 -25 -16 -42 -30 -42 -8 0 -9 3 -1 8 15 10 25 42 14
42 -6 0 -10 -8 -10 -17 0 -15 -2 -14 -15 3 -8 11 -15 14 -15 7 0 -7 -8 -13
-17 -13 -15 0 -16 -2 -3 -10 13 -8 13 -10 1 -10 -11 0 -9 -4 5 -15 10 -8 14
-15 8 -15 -17 0 -30 22 -28 48 2 29 3 32 10 32 3 0 2 -4 -1 -10z m1445 -36 c0
-38 3 -45 16 -40 8 3 26 3 39 0 19 -5 23 -12 21 -40 l-1 -35 45 3 c40 3 45 6
46 28 3 52 3 52 39 48 l35 -4 0 43 0 43 193 0 193 0 -4 -40 -4 -40 41 0 41 0
0 -40 0 -40 125 0 125 0 -6 25 c-10 39 0 52 34 47 26 -3 30 -8 28 -35 -1 -31
1 -32 42 -35 42 -3 42 -3 42 -43 0 -39 0 -39 40 -39 29 0 42 5 50 20 6 12 7
20 1 20 -5 0 -7 9 -4 20 5 18 14 20 74 20 l69 0 0 -40 0 -40 80 0 80 0 0 -39
0 -38 63 -1 c34 0 68 -1 75 -1 7 -1 12 -15 12 -36 0 -34 1 -35 40 -35 l40 0 0
-75 0 -75 40 0 40 0 0 -80 0 -80 40 0 40 0 0 -155 0 -155 41 0 40 0 -1 -67
c-1 -38 -1 -74 -1 -80 1 -8 15 -13 36 -13 l35 0 0 -115 0 -115 40 0 40 0 0
-155 0 -155 40 0 40 0 0 80 0 80 40 0 c39 0 40 1 40 35 l0 35 115 0 115 0 0
-34 c0 -33 2 -35 38 -38 l37 -3 3 -347 2 -348 -40 0 -40 0 0 -40 0 -40 -40 0
-40 0 0 80 0 80 40 0 40 0 0 270 0 270 -40 0 -40 0 0 -40 0 -40 -40 0 c-39 0
-40 -1 -40 -35 0 -33 -2 -35 -35 -35 -33 0 -35 2 -35 35 0 34 -1 35 -40 35
l-40 0 0 -114 0 -115 36 -3 36 -3 1 -110 2 -110 37 -3 37 -3 3 -117 3 -117 38
-3 37 -3 0 -115 0 -114 -41 0 -40 0 3 -37 3 -38 78 -3 77 -3 0 -309 0 -310 35
0 36 0 -3 -152 -3 -153 -32 1 -32 2 -3 -117 -3 -116 -38 0 c-37 0 -37 0 -37
-42 l0 -43 -40 0 -40 0 0 -75 0 -75 -35 0 c-19 0 -36 -3 -36 -7 -1 -5 -2 -23
-4 -40 -2 -32 -1 -33 39 -33 41 0 41 0 41 37 0 37 1 38 38 41 l37 3 0 -115 0
-115 -37 -3 -38 -3 -3 -192 -2 -193 -35 0 c-31 0 -35 -3 -40 -33 -4 -18 -6
-37 -5 -42 2 -6 2 -27 1 -47 -1 -36 -2 -38 -36 -38 l-35 0 0 -75 0 -75 -40 0
-40 0 0 -40 0 -40 -40 0 -40 0 0 -40 c0 -39 -1 -40 -34 -40 -33 0 -35 -2 -38
-37 l-3 -38 -310 -5 -310 -5 -3 -32 c-3 -30 -6 -33 -38 -33 -33 0 -34 -1 -34
-40 l0 -40 -195 0 -195 0 0 40 0 40 -155 0 -155 0 0 41 0 40 -77 -3 -78 -3 -3
38 c-3 35 -5 37 -38 37 -33 0 -34 1 -34 40 l0 40 -80 0 -80 0 0 -40 0 -40 -40
0 -40 0 0 40 0 40 40 0 40 0 0 40 0 40 -74 0 -75 0 -3 38 -3 37 -105 1 c-58 1
-111 2 -117 3 -8 1 -13 15 -13 36 l0 35 -75 0 -75 0 0 40 0 40 -40 0 -40 0 0
43 0 43 -34 -4 c-34 -4 -35 -3 -38 34 -3 37 -5 39 -40 42 l-38 3 -1 62 c-1 34
-1 68 0 75 1 8 -12 12 -38 12 l-40 0 -3 78 -3 77 -35 0 -35 0 -3 78 -3 77 -39
0 c-40 0 -40 0 -40 40 0 39 -1 40 -35 40 -33 0 -35 -2 -36 -32 -1 -18 -1 -36
0 -40 0 -5 -17 -8 -39 -8 l-40 0 0 80 0 80 -41 0 -41 0 4 38 c3 36 2 37 -32
38 -35 0 -35 0 -42 55 -4 29 -4 64 -1 77 5 20 2 22 -37 22 l-41 0 2 78 c2 70
0 77 -17 75 -10 -2 -30 0 -42 3 -24 5 -24 5 -20 133 1 71 1 126 -2 122 -10
-15 -42 -21 -61 -11 -18 10 -19 24 -19 270 l0 260 -35 0 -36 0 3 350 3 350
-42 0 -43 0 0 40 0 40 -41 0 -41 0 4 75 3 75 -42 0 -43 0 0 270 0 270 40 0 40
0 0 115 0 115 40 0 40 0 0 80 0 80 35 0 c34 0 35 1 35 40 l0 40 40 0 c39 0 40
1 40 34 0 33 2 35 38 38 35 3 37 5 40 41 3 36 4 37 43 37 39 0 39 0 39 40 0
39 1 40 35 40 34 0 35 1 35 40 l0 40 80 0 80 0 0 35 c0 34 1 35 40 35 l40 0 0
80 0 80 75 0 75 0 0 35 c0 19 3 35 8 35 4 0 74 2 157 3 l150 2 -3 37 -3 37 43
3 43 3 -3 38 -4 37 51 -2 c28 -1 51 -6 51 -11 0 -5 -17 -7 -37 -5 -35 3 -38 1
-41 -24 -3 -24 0 -28 20 -28 20 1 21 2 6 11 -19 11 -25 39 -8 39 5 0 7 -7 4
-15 -5 -12 2 -15 29 -15 29 0 37 -5 46 -27 10 -25 11 -25 5 -3 -3 14 -6 30 -6
37 -1 7 -6 9 -11 6 -6 -4 -8 1 -4 11 4 10 7 22 7 27 0 6 5 7 10 4 6 -4 8 -11
5 -16 -4 -5 1 -9 9 -9 20 0 21 16 1 24 -21 8 -19 34 3 39 15 4 15 5 -1 6 -11
1 -21 -7 -24 -19 -5 -20 -33 -29 -33 -10 0 6 6 10 13 10 8 0 7 4 -3 10 -13 9
-13 10 0 10 13 0 13 1 0 10 -26 16 10 22 119 18 l101 -3 0 36 c0 43 5 49 42
49 27 0 28 -2 28 -46z m-979 29 c-11 -5 -11 -7 0 -14 11 -7 10 -9 -3 -9 -10 0
-18 7 -18 15 0 8 8 15 18 14 12 0 13 -2 3 -6z m-241 -53 c0 -5 -4 -10 -9 -10
-6 0 -13 5 -16 10 -3 6 1 10 9 10 9 0 16 -4 16 -10z m-45 -10 c-3 -5 -10 -10
-16 -10 -5 0 -9 5 -9 10 0 6 7 10 16 10 8 0 12 -4 9 -10z m-292 -17 c-7 -2
-19 -2 -25 0 -7 3 -2 5 12 5 14 0 19 -2 13 -5z m355 -14 c2 -10 -3 -17 -10
-16 -39 1 -58 -5 -58 -18 0 -8 4 -15 9 -15 13 0 22 -30 16 -51 -8 -25 -51 -25
-57 -1 -3 11 0 19 8 19 8 0 14 -6 14 -14 0 -7 5 -13 10 -13 15 0 12 36 -5 50
-18 15 -20 40 -2 40 8 0 7 3 -3 10 -8 5 -11 12 -7 17 5 4 12 2 16 -5 5 -9 17
-11 37 -6 l29 8 -30 7 -30 8 30 -2 c19 -1 31 -8 33 -18z m-370 -2 c19 -1 14
-37 -5 -37 -15 0 -16 2 -4 9 12 8 9 11 -12 16 -15 4 -27 12 -27 17 0 6 8 7 18
3 9 -4 23 -8 30 -8z m402 -22 c0 -11 -11 -15 -36 -15 -22 0 -33 4 -29 10 4 6
15 8 26 5 11 -4 19 -2 19 4 0 6 5 11 10 11 6 0 10 -7 10 -15z m-340 -37 c0
-14 -22 -19 -35 -8 -12 10 -15 9 -15 -4 0 -14 11 -21 33 -17 12 2 8 -27 -5
-35 -6 -4 -8 -3 -5 3 3 5 -7 17 -24 27 -16 9 -29 21 -29 27 0 5 -9 9 -20 9
-14 0 -18 -5 -13 -17 4 -10 2 -14 -4 -10 -6 4 -18 -2 -27 -12 -17 -18 -17 -20
1 -24 17 -4 17 -5 0 -6 -29 -2 -33 30 -8 51 23 18 23 18 2 18 -25 0 -30 -18
-34 -130 -3 -82 -3 -82 -5 22 -1 77 1 108 11 111 18 8 177 3 177 -5z m58 -17
c1 -20 0 -23 -8 -11 -8 12 -10 10 -11 -10 -1 -21 -2 -22 -6 -5 -3 11 -9 24
-14 30 -15 15 -10 23 14 23 17 0 23 -7 25 -27z m102 19 c0 -5 -5 -10 -11 -10
-5 0 -7 5 -4 10 3 6 8 10 11 10 2 0 4 -4 4 -10z m44 2 c2 -4 -4 -8 -15 -8 -10
0 -19 4 -19 8 0 4 6 8 14 8 8 0 17 -4 20 -8z m-189 -31 c3 -5 1 -12 -5 -16 -5
-3 -10 1 -10 9 0 18 6 21 15 7z m170 -1 c-3 -5 -10 -10 -16 -10 -5 0 -9 5 -9
10 0 6 7 10 16 10 8 0 12 -4 9 -10z m1022 4 c-3 -3 -12 -4 -19 -1 -8 3 -5 6 6
6 11 1 17 -2 13 -5z m-1270 -29 c8 -9 4 -12 -18 -12 -16 0 -29 4 -29 8 0 4 -8
10 -17 12 -10 3 -2 5 17 4 19 -1 40 -6 47 -12z m254 -5 c-8 -4 -11 -15 -8 -24
4 -9 2 -16 -3 -16 -15 0 -12 48 3 53 18 6 24 -3 8 -13z m-31 -64 c0 -56 -4
-75 -15 -80 -8 -3 -15 0 -16 7 0 7 -4 3 -8 -7 -7 -19 -8 -19 -14 3 -5 20 -3
22 19 18 13 -2 24 0 24 4 0 5 -10 9 -22 10 -22 1 -22 1 -2 7 18 6 21 15 20 60
-1 28 2 52 7 52 4 0 7 -33 7 -74z m-469 37 c1 -10 1 -30 1 -45 1 -18 5 -25 14
-21 14 5 16 0 18 -47 1 -22 4 -24 47 -21 35 2 46 -1 46 -12 0 -12 -6 -13 -24
-6 -14 5 -23 5 -23 -1 0 -5 11 -12 25 -16 14 -3 25 -10 25 -14 0 -11 -37 -23
-49 -16 -13 8 -42 -4 -35 -15 3 -5 -2 -6 -10 -3 -13 5 -13 0 -1 -41 11 -35 12
-46 2 -42 -6 2 -13 18 -15 36 -2 18 -10 35 -18 38 -26 10 23 36 67 36 44 0 47
2 20 16 -13 8 -27 7 -47 -3 -54 -26 -70 -28 -70 -8 0 14 8 18 33 18 18 0 39 6
46 13 10 11 9 12 -1 7 -18 -11 -44 13 -37 35 3 9 1 20 -5 24 -6 3 -10 -3 -10
-14 0 -13 -7 -21 -16 -21 -14 0 -14 3 -4 15 10 12 10 15 -1 16 -11 0 -11 2 -1
6 10 4 10 8 0 21 -10 12 -10 14 0 8 9 -5 12 3 11 31 0 30 -2 34 -9 18 -6 -15
-9 -16 -9 -4 -1 9 2 19 6 22 12 12 23 7 24 -10z m32 3 c7 -17 -2 -56 -12 -56
-4 0 -7 16 -7 35 1 36 10 46 19 21z m377 -169 c0 -53 -7 -44 -14 18 -3 27 -10
51 -15 53 -5 2 -7 10 -4 19 9 23 33 -41 33 -90z m-420 23 c0 -5 -4 -10 -10
-10 -5 0 -10 5 -10 10 0 6 5 10 10 10 6 0 10 -4 10 -10z m25 -10 c3 -5 1 -10
-4 -10 -6 0 -11 5 -11 10 0 6 2 10 4 10 3 0 8 -4 11 -10z m286 -21 c-9 -22
-10 -22 -10 -3 -1 11 2 24 6 27 12 12 14 0 4 -24z m82 11 c3 -11 1 -20 -4 -20
-5 0 -9 9 -9 20 0 11 2 20 4 20 2 0 6 -9 9 -20z m-31 -25 c-2 -14 -6 -25 -7
-25 -1 0 -5 11 -7 25 -3 16 -1 25 7 25 8 0 10 -9 7 -25z m-9 -39 c4 4 7 -4 7
-18 0 -33 -30 -47 -31 -15 0 12 -2 38 -4 57 l-4 35 12 -33 c7 -18 16 -30 20
-26z m-218 14 c-3 -5 -12 -10 -18 -10 -7 0 -6 4 3 10 19 12 23 12 15 0z m37
-22 c-5 -7 -12 -24 -15 -38 l-4 -25 -2 26 c0 14 4 30 11 37 16 16 23 15 10 0z
m14 -39 c-8 -19 -15 -29 -15 -22 -1 18 19 67 25 61 3 -3 -2 -21 -10 -39z m87
24 c-66 -5 -69 -21 -5 -26 43 -3 42 -4 -10 -4 -40 0 -58 4 -58 13 0 18 18 23
75 21 l50 -1 -52 -3z m-293 -55 c0 -4 -37 -8 -82 -7 -46 0 -75 3 -65 7 24 10
147 10 147 0z m176 -16 c-10 -16 -69 -20 -84 -6 -7 8 -9 14 -3 14 5 0 12 -4
15 -8 7 -12 66 -2 66 11 0 6 3 8 6 4 3 -3 3 -10 0 -15z m37 1 c-7 -2 -13 -9
-13 -14 0 -6 5 -7 10 -4 6 3 10 -1 10 -10 0 -12 -9 -15 -41 -13 -26 1 -43 -3
-50 -13 -6 -10 -9 -11 -9 -1 0 8 -5 10 -12 6 -10 -5 -10 -4 -1 6 6 7 26 13 45
15 21 1 34 8 36 19 2 9 11 16 20 15 11 0 12 -2 5 -6z m-253 -13 l-45 -7 45 -3
c39 -3 41 -4 13 -7 -18 -2 -33 -8 -33 -14 0 -5 -8 -9 -17 -9 -21 0 -28 -47
-11 -68 8 -9 8 -16 0 -24 -7 -7 -12 -23 -12 -36 0 -14 -5 -22 -12 -19 -9 2
-13 26 -13 73 0 38 -4 72 -10 76 -5 4 6 8 25 9 l35 2 -40 7 c-27 5 -32 8 -15
9 20 1 22 3 10 11 -10 7 7 9 55 8 65 -1 67 -1 25 -8z m130 -35 c0 -17 -6 -25
-17 -26 -17 -1 -17 -2 0 -6 9 -2 17 -8 17 -13 0 -4 -9 -6 -19 -3 -20 5 -24 -5
-35 -97 -2 -19 -3 -3 -2 37 1 57 -2 73 -14 76 -8 2 -5 3 8 2 12 -1 22 2 22 6
0 5 7 9 15 9 8 0 15 9 15 20 0 11 2 20 5 20 3 0 5 -11 5 -25z m57 -52 c-3 -10
-5 -2 -5 17 0 19 2 27 5 18 2 -10 2 -26 0 -35z m-18 3 c-1 -16 -2 -17 -6 -3
-2 9 -9 17 -14 17 -5 0 -9 4 -9 10 0 5 7 7 15 4 8 -4 14 -16 14 -28z m-109 -6
c0 -5 -4 -10 -10 -10 -5 0 -10 5 -10 10 0 6 5 10 10 10 6 0 10 -4 10 -10z m90
-12 c0 -4 -11 -7 -25 -6 -33 3 -33 16 0 14 14 0 25 -4 25 -8z m-95 -60 c0 -42
3 -53 18 -56 14 -3 17 5 18 50 1 60 5 55 12 -14 3 -36 1 -48 -9 -48 -8 0 -14
-7 -14 -15 0 -8 -6 -15 -14 -15 -22 0 -29 18 -9 23 14 4 13 5 -4 6 -12 0 -23
-5 -25 -13 -2 -10 -9 -6 -22 12 -19 25 -19 25 2 20 27 -8 30 -3 33 55 4 64 15
60 14 -5z m-84 -82 c5 3 9 -25 9 -65 l0 -71 -52 2 -53 1 45 6 45 6 2 50 c1 28
-1 42 -4 33 -2 -10 -14 -18 -26 -18 -14 0 -17 3 -10 8 6 4 15 21 19 37 4 16 9
24 12 17 2 -7 8 -10 13 -6z m45 -41 c3 -25 4 -59 1 -75 -4 -18 -2 -30 6 -34 7
-2 -1 -5 -18 -6 -30 -2 -30 -2 -5 -10 17 -5 1 -8 -50 -7 -63 0 -67 1 -25 6
l50 5 -50 6 -50 7 64 1 c54 2 62 4 57 18 -4 9 -1 23 5 31 9 10 9 23 0 52 -13
46 -14 51 -2 51 6 0 13 -20 17 -45z m94 35 c0 -5 -4 -10 -10 -10 -5 0 -10 5
-10 10 0 6 5 10 10 10 6 0 10 -4 10 -10z m-167 -87 c-13 -2 -33 -2 -45 0 -13
2 -3 4 22 4 25 0 35 -2 23 -4z m4352 -1013 l0 -145 -32 -3 -31 -3 -1 141 c-1
77 1 145 4 150 3 5 18 8 33 7 l27 -2 0 -145z m-3525 -2340 c0 -5 -8 -10 -17
-10 -15 0 -16 2 -3 10 19 12 20 12 20 0z m40 -65 l0 -75 -29 0 c-17 0 -32 4
-36 9 -3 6 7 9 22 8 27 -2 28 -1 29 53 2 52 1 53 -6 15 l-7 -40 -2 53 c-1 40
2 52 14 52 12 0 15 -15 15 -75z m-42 10 c1 -20 -3 -33 -8 -30 -10 6 -7 65 3
65 2 0 4 -16 5 -35z m4072 -56 l0 -39 43 -2 42 -1 -45 -7 c-25 -4 -37 -8 -27
-8 9 -1 17 -5 18 -9 0 -5 2 -19 4 -33 2 -14 1 -34 -2 -44 -5 -20 -6 -20 -20 0
-15 19 -15 3 2 -106 3 -23 3 -23 -8 3 l-11 28 -13 -38 c-9 -26 -11 -29 -7 -8
13 64 16 255 4 255 -8 0 -11 -30 -10 -97 1 -54 -3 -122 -9 -152 -6 -29 -11
-55 -11 -57 0 -2 -4 -4 -10 -4 -12 0 -13 37 -1 44 14 9 23 93 22 193 -2 80 0
92 16 96 14 4 13 5 -4 6 -23 1 -23 -1 -24 -116 -1 -65 -5 -131 -9 -148 -5 -18
-8 30 -8 122 0 163 -2 156 51 160 13 1 17 -6 17 -38z m-4060 1 c0 -5 -5 -10
-11 -10 -5 0 -7 5 -4 10 3 6 8 10 11 10 2 0 4 -4 4 -10z m70 -51 c0 -5 -4 -7
-10 -4 -6 3 -7 -1 -4 -9 3 -9 2 -16 -2 -16 -5 0 -8 -65 -6 -145 2 -89 7 -143
13 -140 5 4 9 -3 9 -15 0 -12 -4 -18 -10 -15 -5 3 -10 1 -10 -4 0 -6 2 -11 4
-11 2 0 10 -2 18 -5 10 -4 13 6 13 39 0 24 -2 43 -5 41 -3 -2 -4 62 -2 141 2
79 6 144 10 144 4 0 6 -73 6 -162 -2 -197 2 -214 44 -212 30 2 32 0 32 -31 0
-24 -5 -34 -20 -38 -13 -3 -20 0 -20 9 0 8 6 11 15 8 8 -4 15 -1 15 5 0 15
-37 14 -42 -1 -3 -7 -7 -6 -11 5 -5 14 0 17 26 19 26 1 24 2 -13 7 -48 6 -60
0 -53 -30 4 -14 0 -19 -16 -19 -21 0 -21 3 -21 218 0 120 3 222 7 225 10 11
33 8 33 -4z m4070 -189 l0 -180 -33 0 c-32 0 -33 0 -28 43 5 40 5 41 10 11 5
-26 9 -30 25 -24 17 6 18 7 3 13 -9 3 -17 16 -17 27 0 22 15 27 24 8 3 -7 3
16 0 52 -2 36 -6 97 -8 136 -1 39 -6 76 -10 83 -5 7 0 11 13 11 20 0 21 -5 21
-180z m-69 -72 c6 -11 4 -18 -6 -22 -12 -4 -15 3 -14 32 0 20 3 30 6 22 3 -8
10 -22 14 -32z m-31 -14 c0 -8 -4 -12 -10 -9 -5 3 -10 10 -10 16 0 5 5 9 10 9
6 0 10 -7 10 -16z m-3940 -150 c0 -8 -4 -12 -10 -9 -5 3 -10 13 -10 21 0 8 5
12 10 9 6 -3 10 -13 10 -21z m378 -348 c15 -9 16 -56 2 -56 -5 0 -10 11 -10
25 0 22 -4 25 -39 25 -22 0 -46 3 -55 6 -9 3 -16 1 -16 -6 0 -6 4 -9 9 -5 5 3
16 -1 24 -9 8 -8 18 -12 21 -8 4 3 4 -2 0 -13 -5 -11 -9 -14 -12 -7 -2 7 -8
12 -13 12 -6 0 -8 -4 -5 -8 2 -4 -4 -9 -15 -9 -10 -1 -19 3 -19 8 0 6 5 7 10
4 6 -3 10 -1 10 4 0 6 -7 11 -15 11 -17 0 -17 2 -9 23 4 10 21 14 63 12 31 -1
63 -5 69 -9z m947 -26 c0 -33 -2 -35 -37 -38 l-38 -3 0 41 0 41 38 -3 c35 -3
37 -5 37 -38z m-975 -32 c0 -4 12 -8 26 -8 15 0 23 -4 18 -11 -3 -6 -17 -8
-30 -5 -20 5 -24 2 -29 -27 -4 -18 -5 -49 -2 -68 3 -31 4 -30 6 11 3 66 11 77
46 69 l30 -7 -28 -1 c-19 -1 -26 -5 -21 -13 4 -7 3 -8 -4 -4 -9 5 -12 -6 -12
-38 0 -28 5 -46 11 -46 8 0 9 11 5 31 -4 24 -2 35 11 45 28 21 36 16 13 -8
-11 -12 -16 -24 -12 -27 5 -3 8 -16 8 -29 0 -20 -5 -23 -31 -20 l-30 3 -2 81
c-1 63 2 81 13 81 8 0 14 -4 14 -9z m119 -41 c0 -21 -1 -21 -9 -2 -12 28 -12
37 0 30 6 -3 10 -16 9 -28z m-16 -34 c-7 -2 -19 -2 -25 0 -7 3 -2 5 12 5 14 0
19 -2 13 -5z m407 -174 c0 -12 -34 -21 -38 -10 -2 5 -10 7 -18 4 -8 -3 -14 0
-14 6 0 7 14 11 35 9 19 -1 35 -5 35 -9z m2055 -9 c5 0 3 5 -5 10 -11 7 2 10
43 10 73 0 74 -22 1 -31 -57 -7 -74 -3 -74 19 0 12 3 13 12 4 7 -7 17 -12 23
-12z m112 -12 c-3 -7 -5 -2 -5 12 0 14 2 19 5 13 2 -7 2 -19 0 -25z m-8 -34
c-5 -6 -5 -14 -1 -19 4 -4 -23 -5 -60 -2 -59 4 -68 2 -67 -12 0 -10 2 -11 6
-3 7 19 23 14 16 -5 -4 -10 -10 -20 -14 -23 -4 -3 35 -6 86 -7 97 -2 108 2
118 42 3 12 5 6 6 -16 l1 -36 -115 -2 -115 -2 0 44 c0 41 2 45 20 40 14 -4 20
-1 18 8 -2 10 11 16 42 19 47 5 75 -7 59 -26z m-2199 -11 c0 -10 -4 -14 -8 -8
-4 6 -11 13 -16 18 -5 4 -2 7 7 7 10 0 17 -8 17 -17z m386 -21 c-15 -3 -16 -6
-5 -13 11 -7 11 -9 -3 -9 -10 0 -18 6 -18 14 0 16 20 26 35 17 6 -3 1 -7 -9
-9z m1880 -11 c-10 -15 -166 -15 -166 0 0 7 18 10 48 8 26 -1 54 0 62 4 45 17
70 12 56 -12z m-1839 4 c0 -8 -4 -12 -9 -9 -4 3 -8 9 -8 15 0 5 4 9 8 9 5 0 9
-7 9 -15z m-13 -36 c-28 -11 -54 -10 -54 2 0 5 4 8 8 5 4 -2 14 -1 22 4 7 4
20 6 28 2 13 -4 12 -7 -4 -13z m86 -31 c0 -5 -11 -8 -24 -8 -15 0 -26 -7 -29
-20 -3 -13 0 -20 9 -20 8 0 14 7 14 15 0 8 5 15 10 15 6 0 10 -6 10 -14 0 -8
10 -22 23 -32 14 -11 16 -14 5 -11 -10 4 -20 2 -23 -3 -4 -6 2 -10 12 -11 10
0 13 -3 6 -6 -14 -5 -18 -24 -5 -22 4 1 22 1 40 0 49 -2 38 -19 -12 -18 -41 0
-45 3 -50 31 -4 18 -2 32 4 34 19 7 0 20 -20 15 -22 -6 -28 -42 -7 -44 10 0
10 -2 0 -6 -7 -2 -13 -9 -13 -14 0 -4 7 -6 15 -3 8 4 15 1 15 -5 0 -6 -11 -11
-25 -11 -24 0 -25 2 -25 73 l0 72 35 0 c19 0 35 -3 35 -7z m546 -69 c3 -6 1
-14 -5 -18 -9 -6 -9 -15 -1 -37 6 -16 8 -25 4 -21 -5 4 -16 -11 -25 -35 -9
-23 -21 -43 -28 -44 -6 -2 -7 0 -1 3 5 2 10 31 10 64 0 46 -3 59 -15 59 -8 0
-15 -7 -15 -16 0 -8 5 -12 10 -9 6 3 10 2 10 -3 0 -5 -21 -9 -47 -10 l-48 -1
35 13 c33 12 33 13 10 19 -15 4 -27 1 -32 -6 -5 -8 -8 -7 -8 4 0 9 10 19 23
23 33 9 44 7 27 -4 -13 -8 -12 -10 3 -10 9 0 17 5 17 12 0 6 3 8 7 5 3 -4 12
-2 20 4 10 9 13 3 15 -32 1 -44 1 -44 5 -6 2 20 10 37 16 37 7 0 6 4 -3 10 -9
6 -10 10 -3 10 6 0 15 -5 19 -11z m770 -57 c-4 -3 -12 0 -18 6 -9 9 -9 12 0
12 7 0 13 10 13 23 2 17 3 15 6 -6 3 -16 2 -31 -1 -35z m-1236 27 c0 -12 -37
-12 -44 0 -4 5 4 7 16 3 16 -4 19 -2 13 8 -5 9 -4 11 3 6 7 -4 12 -11 12 -17z
m1190 17 c0 -3 -4 -8 -10 -11 -5 -3 -10 -1 -10 4 0 6 5 11 10 11 6 0 10 -2 10
-4z m6 -40 c-2 -14 1 -27 7 -29 7 -2 -6 -4 -28 -5 -34 0 -37 2 -16 9 14 6 21
15 18 23 -5 12 1 20 21 25 1 1 0 -10 -2 -23z m-239 -38 c7 -5 17 -7 23 -3 5 3
10 2 10 -4 0 -13 -102 -2 -113 13 -6 7 -7 6 -4 -4 2 -10 19 -16 45 -18 23 -2
42 -8 42 -14 0 -6 -18 -9 -45 -6 -25 2 -47 -1 -49 -7 -3 -5 -5 6 -5 27 l-1 36
43 -5 c23 -3 47 -10 54 -15z m173 10 c0 -5 -15 -8 -34 -8 -18 0 -47 -3 -63 -6
-22 -4 -32 -2 -36 9 -5 13 5 15 64 14 38 -1 69 -5 69 -9z m125 2 c19 -8 19 -9
-2 -9 -12 -1 -25 4 -28 9 -7 12 2 12 30 0z m65 -32 l0 -30 -175 3 c-96 2 -175
7 -175 11 0 8 23 12 47 9 6 -1 14 3 18 9 4 6 55 10 126 10 96 0 119 3 119 14
0 9 7 12 20 9 14 -4 20 -14 20 -35z m-913 -15 c-3 -10 -5 -2 -5 17 0 19 2 27
5 18 2 -10 2 -26 0 -35z m61 2 c-2 -36 -11 -44 -24 -23 -4 6 -2 14 4 16 7 2
12 12 12 23 0 10 2 19 5 19 3 0 5 -16 3 -35z m72 -34 c0 -6 -9 -8 -19 -6 -11
2 -22 -2 -24 -10 -3 -7 -19 -20 -36 -28 -21 -11 -28 -11 -25 -2 3 7 -2 15 -10
18 -10 4 -13 1 -10 -7 3 -8 1 -17 -5 -21 -7 -3 -11 2 -11 14 0 11 9 25 20 31
16 9 20 8 20 -5 0 -9 8 -15 23 -14 18 1 18 2 4 6 -18 5 -18 5 0 19 20 15 73
19 73 5z m-14 -36 c-8 -8 -20 -15 -26 -15 -16 0 12 29 28 30 10 0 10 -4 -2
-15z m-46 -35 c0 -16 7 -20 33 -20 27 -1 29 -2 14 -11 -10 -6 -25 -8 -33 -5
-8 3 -14 1 -14 -5 0 -7 14 -10 34 -7 19 2 32 0 30 -4 -3 -4 4 -8 15 -8 12 0
21 -4 21 -9 0 -8 -66 -5 -96 4 -13 4 -24 85 -12 85 5 0 8 -9 8 -20z m80 -23
c0 -4 -7 -2 -15 7 -8 8 -15 21 -15 28 1 14 30 -20 30 -35z m-45 23 c3 -5 -1
-10 -10 -10 -9 0 -13 5 -10 10 3 6 8 10 10 10 2 0 7 -4 10 -10z m95 -65 l0
-55 -32 0 -33 0 25 13 c20 10 26 21 28 55 4 60 12 52 12 -13z m-2 -72 c-10 -2
-28 -2 -40 0 -13 2 -5 4 17 4 22 1 32 -1 23 -4z"/>
<path d="M4990 8747 c0 -20 4 -37 10 -37 5 0 7 14 3 33 -8 45 -13 47 -13 4z"/>
<path d="M4921 8663 c-1 -7 -9 -13 -18 -13 -15 0 -16 -2 -3 -10 18 -11 35 2
27 22 -4 9 -6 10 -6 1z"/>
<path d="M4485 8400 c-3 -5 -1 -10 4 -10 6 0 11 5 11 10 0 6 -2 10 -4 10 -3 0
-8 -4 -11 -10z"/>
<path d="M4302 8353 c9 -2 19 -12 21 -21 3 -12 5 -10 6 6 1 17 -4 22 -21 21
-16 -1 -18 -3 -6 -6z"/>
<path d="M4301 8324 c0 -11 3 -14 6 -6 3 7 2 16 -1 19 -3 4 -6 -2 -5 -13z"/>
<path d="M4160 8260 c0 -5 5 -10 10 -10 6 0 10 5 10 10 0 6 -4 10 -10 10 -5 0
-10 -4 -10 -10z"/>
<path d="M3872 7940 c0 -14 2 -19 5 -12 2 6 2 18 0 25 -3 6 -5 1 -5 -13z"/>
<path d="M5265 7970 c-3 -5 -12 -7 -20 -3 -8 3 -15 0 -15 -6 0 -6 7 -11 15
-11 7 0 19 -8 24 -17 8 -15 10 -12 8 14 -2 36 -3 38 -12 23z"/>
<path d="M5294 7943 c10 -10 146 -11 146 -1 0 4 -34 8 -77 8 -42 0 -73 -3 -69
-7z"/>
<path d="M5235 7930 c3 -5 0 -10 -7 -10 -10 0 -10 -2 -1 -8 13 -8 6 -52 -8
-52 -5 0 -9 -4 -9 -10 0 -25 28 -7 34 21 9 46 7 69 -5 69 -5 0 -7 -4 -4 -10z"/>
<path d="M4906 7893 c-4 -10 -2 -19 3 -21 6 -2 9 -8 5 -13 -3 -5 0 -9 6 -9 6
0 8 10 4 28 -9 35 -10 36 -18 15z"/>
<path d="M4930 7898 c0 -10 8 -18 18 -19 12 0 13 -2 3 -6 -11 -5 -11 -7 0 -14
10 -6 11 -9 2 -9 -7 0 -13 -5 -13 -11 0 -8 4 -8 13 0 8 6 31 15 53 20 33 8 35
9 11 10 -31 1 -68 17 -79 35 -5 7 -8 4 -8 -6z"/>
<path d="M5535 7900 c-17 -8 -17 -9 8 -9 27 -1 36 -14 17 -26 -5 -3 -10 -10
-10 -16 0 -5 5 -9 10 -9 6 0 10 6 10 14 0 8 5 16 11 18 6 2 3 10 -8 20 -12 10
-24 13 -38 8z"/>
<path d="M4998 7883 c7 -3 16 -2 19 1 4 3 -2 6 -13 5 -11 0 -14 -3 -6 -6z"/>
<path d="M5930 7886 c0 -9 30 -14 35 -6 4 6 -3 10 -14 10 -12 0 -21 -2 -21 -4z"/>
<path d="M4773 7873 c15 -2 37 -2 50 0 12 2 0 4 -28 4 -27 0 -38 -2 -22 -4z"/>
<path d="M5520 7866 c0 -14 -19 -16 -129 -16 -94 0 -131 3 -134 13 -3 7 -6 5
-6 -5 -1 -16 12 -18 133 -18 103 0 136 3 145 14 8 10 9 16 1 21 -5 3 -10 -1
-10 -9z"/>
<path d="M5925 7860 c3 -5 8 -10 11 -10 2 0 4 5 4 10 0 6 -5 10 -11 10 -5 0
-7 -4 -4 -10z"/>
<path d="M4887 7845 c-4 -8 -3 -16 1 -19 4 -3 9 4 9 15 2 23 -3 25 -10 4z"/>
<path d="M5008 7843 c7 -3 16 -2 19 1 4 3 -2 6 -13 5 -11 0 -14 -3 -6 -6z"/>
<path d="M5945 7830 c-3 -5 1 -10 10 -10 9 0 13 5 10 10 -3 6 -8 10 -10 10 -2
0 -7 -4 -10 -10z"/>
<path d="M4935 7809 c-4 -6 -4 -13 -1 -16 3 -4 6 -1 6 6 0 8 6 11 16 7 8 -3
12 -2 9 4 -8 13 -22 13 -30 -1z"/>
<path d="M5910 7812 c1 -10 50 -45 50 -35 0 14 -14 29 -32 36 -10 3 -18 3 -18
-1z"/>
<path d="M4893 7796 c-7 -8 -8 -18 -2 -27 7 -12 9 -12 9 1 0 11 3 11 12 2 14
-14 44 -16 52 -4 2 4 -8 8 -22 7 -20 0 -27 5 -26 18 2 20 -6 21 -23 3z"/>
<path d="M6178 7803 c6 -2 18 -2 25 0 6 3 1 5 -13 5 -14 0 -19 -2 -12 -5z"/>
<path d="M4820 7790 c0 -5 4 -10 9 -10 6 0 13 5 16 10 3 6 -1 10 -9 10 -9 0
-16 -4 -16 -10z"/>
<path d="M6171 7768 c1 -16 3 -18 6 -6 2 9 12 19 21 21 12 3 10 5 -5 6 -18 1
-23 -4 -22 -21z"/>
<path d="M4845 7770 c-3 -5 1 -10 9 -10 9 0 16 5 16 10 0 6 -4 10 -9 10 -6 0
-13 -4 -16 -10z"/>
<path d="M5946 7745 c4 -8 11 -16 18 -16 35 -4 66 -18 66 -31 0 -5 -4 -6 -10
-3 -5 3 -10 1 -10 -4 0 -6 7 -11 16 -11 10 0 14 7 12 23 -2 12 -9 21 -16 20
-6 -2 -12 4 -12 13 0 9 5 12 12 8 7 -4 8 -3 4 4 -5 8 -14 8 -33 -1 -21 -9 -27
-9 -31 1 -2 6 -8 12 -13 12 -4 0 -6 -7 -3 -15z"/>
<path d="M6046 7723 c9 -38 14 -42 14 -10 0 14 -5 29 -10 32 -7 4 -8 -3 -4
-22z"/>
<path d="M4676 7725 c-3 -9 0 -15 8 -15 7 0 13 7 13 15 0 8 -4 15 -8 15 -4 0
-9 -7 -13 -15z"/>
<path d="M6141 7711 c-1 -24 2 -32 9 -25 7 7 7 19 1 35 -9 23 -10 22 -10 -10z"/>
<path d="M6172 7730 c6 -19 38 -26 38 -9 0 7 -3 9 -7 6 -3 -4 -13 -1 -21 6
-13 10 -14 9 -10 -3z"/>
<path d="M4792 7721 c-11 -7 -11 -9 2 -14 10 -4 16 -1 16 8 0 17 -1 17 -18 6z"/>
<path d="M4695 7690 c-3 -5 -2 -10 4 -10 5 0 13 5 16 10 3 6 2 10 -4 10 -5 0
-13 -4 -16 -10z"/>
<path d="M5945 7690 l-30 -8 32 -1 c17 0 35 4 38 9 7 11 3 11 -40 0z"/>
<path d="M6170 7689 c0 -5 5 -7 10 -4 6 3 10 8 10 11 0 2 -4 4 -10 4 -5 0 -10
-5 -10 -11z"/>
<path d="M6225 7660 c-12 -5 4 -6 40 -3 33 3 62 7 64 9 9 8 -85 2 -104 -6z"/>
<path d="M4333 7653 c15 -2 37 -2 50 0 12 2 0 4 -28 4 -27 0 -38 -2 -22 -4z"/>
<path d="M6345 7640 c-3 -5 -1 -10 4 -10 6 0 11 5 11 10 0 6 -2 10 -4 10 -3 0
-8 -4 -11 -10z"/>
<path d="M4309 7613 c0 -25 -1 -26 -9 -8 -7 16 -9 12 -9 -18 -1 -23 3 -36 9
-32 6 4 8 11 5 16 -4 5 -1 9 4 9 6 0 11 11 11 25 0 23 4 25 40 25 22 0 40 -4
40 -10 0 -15 17 -12 24 5 4 12 -5 15 -54 15 -59 0 -60 -1 -61 -27z"/>
<path d="M6241 7626 c2 -2 31 -6 64 -9 37 -3 51 -2 35 3 -25 8 -107 13 -99 6z"/>
<path d="M4405 7570 c3 -5 8 -10 11 -10 2 0 4 5 4 10 0 6 -5 10 -11 10 -5 0
-7 -4 -4 -10z"/>
<path d="M4318 7533 c7 -3 16 -2 19 1 4 3 -2 6 -13 5 -11 0 -14 -3 -6 -6z"/>
<path d="M5676 7116 c-3 -13 -3 -32 0 -40 5 -14 -12 -16 -155 -16 l-161 0 0
-40 c0 -39 -1 -40 -35 -40 -33 0 -35 -2 -35 -35 0 -19 1 -35 3 -36 1 0 35 -3
75 -5 l72 -5 0 40 0 41 155 0 155 0 0 78 0 78 -34 2 c-28 2 -35 -1 -40 -22z"/>
<path d="M6450 6862 l0 -38 -40 4 -40 4 0 -40 c0 -40 -1 -41 -37 -44 -25 -2
-38 -8 -39 -18 -1 -8 -2 -25 -3 -37 -1 -19 -7 -23 -35 -23 -33 0 -35 -2 -38
-37 -3 -36 -5 -38 -40 -41 l-38 -3 0 -75 0 -74 40 0 40 0 0 -40 0 -40 155 0
155 0 0 40 0 40 40 0 c39 0 40 1 40 35 0 33 2 35 35 35 34 0 35 1 35 40 l0 40
40 0 40 0 0 80 0 80 -40 0 -40 0 0 40 c0 39 -1 40 -35 40 -33 0 -35 2 -35 35
l0 35 -80 0 -80 0 0 -38z"/>
<path d="M4280 6320 l0 -40 -40 0 -40 0 0 -155 0 -155 40 0 40 0 0 -40 0 -40
270 0 270 0 0 40 0 40 80 0 80 0 0 40 c0 39 1 40 35 40 l35 0 0 115 0 115 -35
0 c-34 0 -35 1 -35 40 l0 40 -350 0 -350 0 0 -40z"/>
<path d="M3430 6335 c0 -8 6 -13 13 -10 30 9 118 15 114 7 -3 -4 -2 -14 4 -22
6 -11 9 -8 9 13 0 27 0 27 -70 27 -55 0 -70 -3 -70 -15z"/>
<path d="M3522 6300 c0 -14 2 -19 5 -12 2 6 2 18 0 25 -3 6 -5 1 -5 -13z"/>
<path d="M6140 6165 l0 -115 40 0 40 0 0 115 0 115 -40 0 -40 0 0 -115z"/>
<path d="M6600 6245 c0 -33 -2 -35 -35 -35 -34 0 -35 -1 -35 -40 l0 -40 -40 0
-40 0 0 -40 0 -40 -40 0 -40 0 0 -40 c0 -40 0 -40 -40 -40 -39 0 -40 0 -37
-37 2 -38 2 -38 -35 -37 -38 1 -38 1 -38 -37 0 -38 1 -39 35 -39 26 0 35 -4
36 -17 0 -10 1 -63 2 -118 l2 -100 35 -5 c32 -5 35 -8 38 -42 3 -37 4 -38 43
-38 38 0 39 -1 39 -35 l0 -35 154 0 155 0 3 38 c3 35 5 37 41 40 35 3 37 5 37
38 0 33 1 34 40 34 l40 0 0 40 c0 39 1 40 35 40 l35 0 0 115 c0 85 -3 115 -12
116 -7 1 -22 2 -33 3 -16 1 -21 9 -23 39 -3 36 -4 37 -43 37 -39 0 -39 0 -39
40 l0 40 -80 0 -80 0 0 40 c0 39 -1 40 -35 40 -33 0 -35 2 -35 35 l0 35 115 0
115 0 0 40 0 40 -120 0 -120 0 0 -35z m240 -315 l0 -40 40 0 40 0 0 -115 0
-115 -40 0 -40 0 0 -40 0 -40 -40 0 c-39 0 -40 -1 -40 -35 0 -34 -1 -35 -40
-35 -39 0 -40 1 -40 35 0 34 1 35 40 35 l40 0 0 195 0 195 40 0 40 0 0 -40z
m-310 -150 l0 -120 -40 0 -40 0 0 -40 0 -40 -40 0 -40 0 0 154 0 155 43 4 c23
2 59 4 80 5 l37 2 0 -120z"/>
<path d="M3540 6261 c0 -5 5 -13 10 -16 6 -3 10 -2 10 4 0 5 -4 13 -10 16 -5
3 -10 2 -10 -4z"/>
<path d="M3575 6261 c-3 -5 0 -13 6 -17 6 -3 15 -1 19 6 4 7 13 9 19 6 16 -10
14 -26 -4 -26 -8 0 -15 -6 -15 -14 0 -9 7 -12 20 -9 11 3 18 9 15 13 -3 5 -1
11 5 15 5 3 10 13 10 21 0 16 -65 20 -75 5z"/>
<path d="M3430 6246 c0 -9 7 -16 16 -16 17 0 14 22 -4 28 -7 2 -12 -3 -12 -12z"/>
<path d="M3507 6208 c4 -7 6 -25 4 -41 -3 -28 16 -44 41 -34 8 4 5 8 -10 13
-22 6 -26 32 -7 47 6 4 4 11 -5 17 -21 14 -33 12 -23 -2z"/>
<path d="M3650 6189 c8 -5 25 -9 38 -9 19 0 22 -5 22 -37 0 -47 11 -37 13 12
2 37 2 37 -43 40 -29 3 -39 1 -30 -6z"/>
<path d="M3545 6170 c-3 -5 3 -10 14 -10 12 0 21 5 21 10 0 6 -6 10 -14 10 -8
0 -18 -4 -21 -10z"/>
<path d="M3682 6135 c0 -16 2 -22 5 -12 2 9 2 23 0 30 -3 6 -5 -1 -5 -18z"/>
<path d="M3591 6093 l-1 -31 61 -4 c34 -1 63 0 66 5 2 4 -23 7 -56 7 -57 0
-60 1 -64 28 -4 26 -4 26 -6 -5z"/>
<path d="M3705 6090 c-3 -5 1 -10 10 -10 9 0 13 5 10 10 -3 6 -8 10 -10 10 -2
0 -7 -4 -10 -10z"/>
<path d="M4510 5700 c0 -40 0 -40 -39 -40 -39 0 -40 -1 -43 -37 -3 -36 -5 -38
-35 -37 -30 2 -38 -5 -34 -30 6 -30 -12 -46 -51 -46 -32 0 -39 -3 -34 -16 3
-9 6 -27 6 -40 0 -21 4 -24 40 -24 40 0 40 0 40 40 0 22 3 39 8 39 4 -1 19 -1
35 0 24 1 27 5 27 36 l0 35 80 0 80 0 0 40 0 40 75 0 75 0 0 -40 c0 -38 -1
-39 -30 -36 -35 4 -45 -8 -41 -46 2 -26 0 -28 -38 -28 l-41 0 0 -40 0 -40 -40
0 -40 0 0 -40 0 -40 -40 0 -40 0 0 -40 0 -40 -40 0 -40 0 0 -40 c0 -40 0 -40
39 -40 38 0 40 -1 43 -35 l3 -36 350 -2 350 -2 0 35 c0 33 2 35 38 38 36 3 37
4 37 43 0 39 0 39 40 39 l40 0 0 80 0 80 -40 0 -40 0 0 40 0 40 -40 0 -40 0 0
41 c0 25 -4 38 -10 34 -6 -4 -24 -3 -41 0 -28 6 -31 10 -27 41 4 33 3 34 -34
34 -38 0 -38 0 -38 40 l0 40 -235 0 -235 0 0 -40z m540 -155 c0 -34 1 -35 40
-35 l40 0 0 -40 0 -40 40 0 40 0 0 -80 0 -80 -40 0 c-39 0 -40 -1 -40 -35 0
-34 -1 -35 -40 -35 l-40 0 0 155 0 155 -35 0 c-33 0 -35 2 -35 35 0 33 2 35
35 35 33 0 35 -2 35 -35z m-230 -230 l0 -115 -115 0 -115 0 0 75 0 75 35 0
c34 0 35 1 35 40 l0 40 80 0 80 0 0 -115z"/>
<path d="M6370 5000 l0 -40 80 0 80 0 0 40 0 40 -80 0 -80 0 0 -40z"/>
<path d="M6680 5000 l0 -40 155 0 155 0 0 40 0 40 -155 0 -155 0 0 -40z"/>
<path d="M5910 4850 l0 -40 -40 0 -40 0 0 -40 0 -40 -40 0 -40 0 0 -40 0 -40
40 0 40 0 0 40 0 40 80 0 c59 0 80 3 79 13 -1 6 -1 24 0 40 1 24 5 27 36 27
34 0 35 1 35 40 l0 40 -75 0 -75 0 0 -40z"/>
<path d="M6450 4850 l0 -40 -40 0 -40 0 0 -40 0 -40 40 0 40 0 0 -40 0 -41 78
3 77 3 3 78 3 77 74 0 75 0 0 40 0 40 -155 0 -155 0 0 -40z"/>
<path d="M3615 4869 c-10 -15 1 -23 20 -15 9 3 13 10 10 16 -8 13 -22 13 -30
-1z"/>
<path d="M3607 4834 c-13 -13 7 -34 32 -33 24 2 24 2 3 6 -22 4 -23 5 -5 18
17 14 17 14 -3 15 -11 0 -23 -3 -27 -6z"/>
<path d="M3708 4685 c2 -64 6 -114 10 -111 9 5 3 226 -6 226 -4 0 -6 -52 -4
-115z"/>
<path d="M3680 4725 c0 -37 -4 -65 -10 -65 -5 0 -10 -7 -10 -15 0 -8 -7 -15
-15 -15 -8 0 -15 -5 -15 -11 0 -6 -9 -9 -20 -6 -11 3 -20 1 -20 -4 0 -5 11 -9
25 -9 14 0 25 4 25 9 0 21 31 20 40 -2 6 -15 9 9 9 81 1 56 -1 102 -4 102 -3
0 -5 -29 -5 -65z"/>
<path d="M6140 4653 l0 -78 -37 0 -38 0 -3 -77 -3 -78 81 0 80 0 0 40 0 40 41
0 40 0 -3 38 c-3 36 -4 37 -41 37 -36 0 -37 1 -37 38 0 37 0 37 40 37 l40 0 0
40 0 40 -80 0 -80 0 0 -77z"/>
<path d="M3623 4687 c2 -7 13 -13 25 -13 26 -1 20 11 -8 19 -14 3 -20 1 -17
-6z"/>
<path d="M4820 4575 l0 -75 -40 0 -40 0 0 -40 0 -40 -43 0 -43 0 4 -34 4 -34
-111 -1 -111 -1 0 30 c0 30 15 41 22 18 3 -7 7 -6 11 5 6 15 -3 17 -88 17 -52
0 -95 -4 -95 -9 0 -4 12 -8 28 -7 22 1 28 -4 30 -26 3 -25 0 -28 -27 -28 -17
0 -31 4 -31 8 0 5 10 8 21 8 30 -1 35 19 5 22 -36 3 -41 -29 -38 -245 l2 -193
40 0 40 0 2 163 c3 222 6 259 18 192 l7 -40 2 38 c1 38 23 52 35 21 3 -8 2
-12 -4 -9 -6 3 -10 1 -10 -4 0 -6 5 -11 10 -11 18 0 11 -20 -7 -21 -34 -1 19
-18 60 -18 l38 -1 -3 -72 -3 -73 -38 0 -37 0 0 -197 0 -198 40 0 40 0 0 -79 0
-80 38 -3 c35 -3 37 -5 37 -37 0 -33 2 -35 35 -35 33 -1 35 -3 38 -38 3 -37 4
-38 43 -38 39 0 39 0 39 -39 0 -39 1 -40 38 -43 35 -3 37 -5 40 -40 l3 -38 75
0 74 0 0 -35 0 -34 118 -3 117 -3 -2 -37 -2 -38 549 0 550 0 0 40 0 40 -545 0
-545 0 0 40 0 40 -115 0 -115 0 0 35 0 35 -80 0 -80 0 0 39 c0 39 -1 40 -37
43 -36 3 -38 5 -41 41 -3 35 -5 37 -38 37 -33 0 -34 1 -34 40 l0 40 -40 0 -40
0 0 75 0 75 115 0 115 0 0 40 0 40 -115 0 -115 0 0 80 0 80 -40 0 -41 0 3 73
3 72 38 3 37 3 0 75 0 74 53 1 c28 1 62 0 75 -1 19 -1 22 3 22 39 l0 41 194 0
195 0 3 -37 c3 -43 -5 -40 136 -42 l92 -1 0 -35 0 -35 349 0 350 0 3 35 3 36
150 1 150 0 5 37 5 36 112 3 111 3 7 -83 c3 -46 5 -167 3 -271 l-3 -187 38 0
c37 0 37 0 37 -40 l0 -40 40 0 40 0 0 -40 0 -40 40 0 40 0 0 -75 0 -75 -40 0
-40 0 0 -40 0 -40 -40 0 -40 0 0 -40 0 -40 -75 0 -75 0 0 -35 0 -35 -114 0
c-121 0 -123 -1 -122 -50 l1 -25 118 -3 117 -3 0 41 0 40 75 0 75 0 0 35 c0
34 1 35 40 35 l40 0 0 40 0 40 40 0 40 0 0 40 0 40 40 0 40 0 0 40 c0 39 1 40
35 40 33 0 35 2 35 35 0 34 1 35 40 35 l40 0 0 194 0 195 -37 3 -38 3 -3 78
-3 77 -34 0 -35 0 0 75 0 75 -40 0 -40 0 0 40 0 40 -235 0 -235 0 0 -40 0 -40
-155 0 -155 0 0 -35 0 -35 -190 0 -190 0 0 35 c0 33 2 35 35 35 l35 0 0 81 0
80 -37 -3 c-37 -3 -38 -4 -38 -41 0 -36 -1 -37 -37 -37 -38 0 -38 0 -38 40 l0
40 -120 0 -120 0 0 -80 0 -80 -115 0 -115 0 0 40 0 40 -156 0 -155 0 3 38 c3
35 5 37 41 40 l37 3 0 75 0 74 -40 0 -40 0 0 -75z m780 -195 l0 -40 -40 0
c-39 0 -40 -1 -40 -35 l0 -35 -80 0 -80 0 0 35 c0 34 1 35 40 35 l40 0 0 40 0
40 80 0 80 0 0 -40z m-1012 -614 c5 -37 -9 -50 -47 -41 -27 6 -31 11 -31 41 0
35 1 35 38 32 32 -3 37 -6 40 -32z"/>
<path d="M6920 4575 l0 -75 35 0 c34 0 35 -1 35 -40 l0 -40 40 0 40 0 0 -115
0 -115 40 0 40 0 0 115 0 115 40 0 40 0 0 40 0 40 -120 0 -120 0 0 75 0 75
-35 0 -35 0 0 -75z"/>
<path d="M3598 4633 c7 -3 16 -2 19 1 4 3 -2 6 -13 5 -11 0 -14 -3 -6 -6z"/>
<path d="M5910 4541 l0 -41 -40 0 -40 0 0 -80 0 -80 80 0 79 0 -2 118 -2 117
-37 3 -38 3 0 -40z"/>
<path d="M3749 4559 c-10 -6 -11 -9 -1 -9 6 0 12 -9 12 -20 0 -14 -7 -20 -22
-20 -13 0 -29 -4 -37 -9 -8 -5 1 -8 25 -7 35 1 40 4 45 31 l6 30 2 -32 c1 -44
21 -42 21 1 0 36 -24 52 -51 35z"/>
<path d="M3980 4496 c0 -36 4 -66 9 -66 12 0 13 117 1 125 -6 4 -10 -18 -10
-59z"/>
<path d="M4160 4550 c0 -5 7 -7 15 -4 8 4 15 8 15 10 0 2 -7 4 -15 4 -8 0 -15
-4 -15 -10z"/>
<path d="M4160 4520 c0 -5 6 -10 14 -10 8 0 18 5 21 10 3 6 -3 10 -14 10 -12
0 -21 -4 -21 -10z"/>
<path d="M4161 4484 c0 -11 3 -14 6 -6 3 7 2 16 -1 19 -3 4 -6 -2 -5 -13z"/>
<path d="M4180 4491 c0 -6 5 -13 10 -16 6 -3 10 1 10 9 0 9 -4 16 -10 16 -5 0
-10 -4 -10 -9z"/>
<path d="M3694 4465 c11 -8 29 -15 40 -15 25 0 19 4 -24 18 -32 11 -33 10 -16
-3z"/>
<path d="M4240 4470 c0 -5 4 -10 9 -10 6 0 13 5 16 10 3 6 -1 10 -9 10 -9 0
-16 -4 -16 -10z"/>
<path d="M3758 4452 c-6 -20 -11 -23 -45 -18 -37 5 -37 5 7 -8 25 -8 38 -15
30 -15 -13 -1 -13 -3 -1 -10 8 -5 12 -18 8 -30 -3 -12 -1 -21 4 -21 5 0 9 5 9
10 0 20 19 10 23 -12 2 -13 5 10 6 50 0 42 -3 72 -9 72 -5 0 -11 -19 -12 -42
l-1 -43 -6 45 c-5 36 -7 41 -13 22z"/>
<path d="M4248 4443 c7 -3 16 -2 19 1 4 3 -2 6 -13 5 -11 0 -14 -3 -6 -6z"/>
<path d="M3980 4404 c0 -17 8 -19 60 -18 33 0 63 4 67 7 7 8 -7 10 -60 7 -21
-1 -45 4 -53 10 -11 10 -14 9 -14 -6z"/>
<path d="M4272 4400 c0 -14 2 -19 5 -12 2 6 2 18 0 25 -3 6 -5 1 -5 -13z"/>
<path d="M4247 4393 c-4 -3 -7 -11 -7 -17 0 -6 5 -5 12 2 6 6 9 14 7 17 -3 3
-9 2 -12 -2z"/>
<path d="M4500 4394 c58 -8 148 -8 143 -1 -2 4 -41 6 -86 6 -45 -1 -71 -3 -57
-5z"/>
<path d="M4450 4370 c0 -5 5 -10 10 -10 6 0 10 5 10 10 0 6 -4 10 -10 10 -5 0
-10 -4 -10 -10z"/>
<path d="M3974 4358 c-3 -4 28 -8 68 -7 83 1 81 6 -5 12 -32 2 -60 0 -63 -5z"/>
<path d="M4250 4355 c-8 -9 -8 -15 -2 -15 12 0 26 19 19 26 -2 2 -10 -2 -17
-11z"/>
<path d="M4135 4329 c-4 -6 -5 -13 -2 -16 7 -7 27 6 27 18 0 12 -17 12 -25 -2z"/>
<path d="M3787 4313 c-11 -10 -8 -43 3 -43 6 0 10 11 10 25 0 26 -2 29 -13 18z"/>
<path d="M4148 4303 c-10 -2 -18 -8 -18 -13 0 -13 26 -19 41 -9 12 7 12 9 -1
10 -8 1 5 5 30 9 l45 7 -40 0 c-22 1 -48 -1 -57 -4z"/>
<path d="M5440 3915 c0 -34 1 -35 40 -35 l40 0 0 -40 0 -40 40 0 40 0 0 40 0
40 -40 0 c-39 0 -40 1 -40 35 0 34 -1 35 -40 35 -39 0 -40 -1 -40 -35z"/>
<path d="M6060 3915 l0 -35 158 0 c86 0 174 -3 195 -6 l37 -7 0 42 0 41 -195
0 -195 0 0 -35z"/>
<path d="M5594 3786 c-3 -8 -4 -25 -2 -38 l3 -23 193 -3 192 -2 0 40 0 40
-190 0 c-156 0 -192 -3 -196 -14z"/>
<path d="M6378 3022 l-158 -3 0 -34 c0 -34 -1 -35 -40 -35 l-40 0 0 -40 0 -40
229 0 228 0 7 71 c4 39 5 74 1 77 -7 7 -32 8 -227 4z"/>
<path d="M7320 6173 c0 -5 4 -13 10 -19 5 -5 11 -63 13 -129 l3 -120 2 123 c2
99 -1 126 -13 138 -8 9 -15 12 -15 7z"/>
<path d="M7927 3523 c-4 -3 -7 -16 -6 -27 0 -19 1 -19 10 3 10 24 8 36 -4 24z"/>
<path d="M3900 3145 c0 -14 4 -25 9 -25 5 0 9 11 9 25 0 14 -4 25 -9 25 -5 0
-9 -11 -9 -25z"/>
<path d="M6920 2420 l45 -6 -43 -6 -42 -5 42 1 c23 1 43 6 46 14 3 8 -10 12
-45 10 l-48 -1 45 -7z"/>
<path d="M7015 2380 c-19 -8 -19 -9 3 -9 12 -1 22 4 22 9 0 6 -1 10 -2 9 -2 0
-12 -4 -23 -9z"/>
<path d="M6644 2140 c-5 -5 -61 -11 -124 -13 l-115 -3 123 0 c71 1 122 -3 122
-8 0 -6 5 -5 12 2 8 8 9 15 2 22 -6 6 -13 7 -20 0z"/>
<path d="M4261 8714 c0 -11 3 -14 6 -6 3 7 2 16 -1 19 -3 4 -6 -2 -5 -13z"/>
<path d="M4460 8700 c0 -5 5 -10 11 -10 5 0 7 5 4 10 -3 6 -8 10 -11 10 -2 0
-4 -4 -4 -10z"/>
<path d="M3931 8274 c0 -11 3 -14 6 -6 3 7 2 16 -1 19 -3 4 -6 -2 -5 -13z"/>
<path d="M3232 8160 c0 -14 2 -19 5 -12 2 6 2 18 0 25 -3 6 -5 1 -5 -13z"/>
<path d="M3061 7914 c0 -11 3 -14 6 -6 3 7 2 16 -1 19 -3 4 -6 -2 -5 -13z"/>
<path d="M3081 7874 c0 -11 3 -14 6 -6 3 7 2 16 -1 19 -3 4 -6 -2 -5 -13z"/>
<path d="M7102 7480 c0 -14 2 -19 5 -12 2 6 2 18 0 25 -3 6 -5 1 -5 -13z"/>
<path d="M7341 6694 c0 -11 3 -14 6 -6 3 7 2 16 -1 19 -3 4 -6 -2 -5 -13z"/>
<path d="M7570 6470 c-8 -5 -10 -10 -5 -10 6 0 17 5 25 10 8 5 11 10 5 10 -5
0 -17 -5 -25 -10z"/>
<path d="M7661 5894 c0 -11 3 -14 6 -6 3 7 2 16 -1 19 -3 4 -6 -2 -5 -13z"/>
<path d="M7561 5704 c0 -11 3 -14 6 -6 3 7 2 16 -1 19 -3 4 -6 -2 -5 -13z"/>
<path d="M7620 5450 c0 -5 5 -10 11 -10 5 0 7 5 4 10 -3 6 -8 10 -11 10 -2 0
-4 -4 -4 -10z"/>
<path d="M7791 5194 c0 -11 3 -14 6 -6 3 7 2 16 -1 19 -3 4 -6 -2 -5 -13z"/>
<path d="M7740 5171 c0 -6 4 -13 10 -16 6 -3 7 1 4 9 -7 18 -14 21 -14 7z"/>
<path d="M7711 5154 c0 -11 3 -14 6 -6 3 7 2 16 -1 19 -3 4 -6 -2 -5 -13z"/>
<path d="M7736 5127 c3 -10 9 -15 12 -12 3 3 0 11 -7 18 -10 9 -11 8 -5 -6z"/>
<path d="M7802 4835 c0 -16 2 -22 5 -12 2 9 2 23 0 30 -3 6 -5 -1 -5 -18z"/>
<path d="M3040 4795 c0 -8 2 -15 4 -15 2 0 6 7 10 15 3 8 1 15 -4 15 -6 0 -10
-7 -10 -15z"/>
<path d="M3103 4795 c0 -8 4 -15 9 -15 4 0 8 5 8 10 0 6 15 9 35 7 19 -2 33
-1 30 3 -2 4 -22 7 -43 8 -28 1 -39 -2 -39 -13z"/>
<path d="M3200 4758 c0 -18 -9 -20 -127 -21 -18 -1 -33 -4 -33 -9 0 -4 38 -7
85 -6 62 2 85 0 85 -9 0 -7 -7 -10 -17 -7 -15 5 -16 4 -3 -5 11 -7 -7 -11 -70
-13 l-85 -3 87 -5 c47 -3 84 -2 82 1 -2 4 3 10 12 13 8 3 12 2 9 -4 -3 -6 -1
-10 4 -10 6 0 11 3 12 8 0 4 2 15 4 24 2 10 -1 20 -6 24 -5 3 -9 -3 -10 -13
-1 -12 -3 -10 -8 7 -4 14 -4 27 1 28 14 6 9 19 -7 19 -8 0 -15 -9 -15 -19z"/>
<path d="M3105 4760 c-3 -5 -1 -10 4 -10 6 0 11 5 11 10 0 6 -2 10 -4 10 -3 0
-8 -4 -11 -10z"/>
<path d="M3262 4720 c0 -14 2 -19 5 -12 2 6 2 18 0 25 -3 6 -5 1 -5 -13z"/>
<path d="M7802 4710 c0 -14 2 -19 5 -12 2 6 2 18 0 25 -3 6 -5 1 -5 -13z"/>
<path d="M3053 4703 c9 -2 23 -2 30 0 6 3 -1 5 -18 5 -16 0 -22 -2 -12 -5z"/>
<path d="M3113 4703 c9 -2 25 -2 35 0 9 3 1 5 -18 5 -19 0 -27 -2 -17 -5z"/>
<path d="M3250 4675 c-9 -11 -34 -15 -95 -15 -45 0 -103 -3 -128 -6 -45 -6
-46 -8 -45 -40 1 -33 11 -44 23 -25 3 5 1 12 -5 16 -15 9 -12 35 5 35 8 0 17
-14 21 -35 6 -34 8 -35 53 -36 106 -3 104 -2 107 -33 6 -57 9 -59 75 -53 33 4
64 9 69 12 7 4 8 -32 1 -68 0 -5 -34 -7 -73 -6 l-73 2 3 -27 c2 -14 -5 -36
-14 -49 -16 -22 -16 -21 -10 13 5 34 5 34 -8 11 -12 -21 -12 -28 1 -48 17 -25
36 -22 26 5 -6 15 -5 15 10 3 12 -9 17 -10 17 -2 0 7 11 10 28 8 24 -3 27 -8
30 -43 l3 -39 74 3 75 4 0 -71 c0 -49 -4 -71 -12 -73 -7 0 10 -4 37 -7 28 -4
53 -5 58 -3 4 2 7 73 7 158 l0 154 -40 0 -40 0 0 40 c0 39 -1 40 -34 40 -41 0
-44 4 -47 58 -2 23 -7 42 -11 42 -4 0 -8 -4 -8 -10 0 -5 -13 -10 -30 -10 -28
0 -30 2 -31 43 -1 23 -1 48 0 55 2 16 -4 15 -19 -3z"/>
<path d="M7802 4650 c0 -19 2 -27 5 -17 2 9 2 25 0 35 -3 9 -5 1 -5 -18z"/>
<path d="M2963 4615 c0 -22 2 -30 4 -17 2 12 2 30 0 40 -3 9 -5 -1 -4 -23z"/>
<path d="M3293 4643 c-7 -2 -13 -12 -13 -21 1 -15 2 -15 11 1 12 21 41 23 33
2 -4 -8 -2 -15 3 -15 5 0 9 9 10 20 2 20 -16 25 -44 13z"/>
<path d="M3130 4551 c0 -5 3 -11 8 -13 4 -1 15 -22 24 -45 14 -37 14 -42 0
-57 -13 -12 -13 -18 -4 -28 9 -9 12 -7 12 10 0 20 5 22 53 22 40 0 60 5 77 20
13 11 19 20 13 20 -5 0 -13 -3 -17 -7 -4 -4 -28 -7 -54 -6 l-47 1 45 -8 45 -8
-49 2 c-44 1 -49 4 -53 26 -2 13 -8 27 -15 31 -6 4 -8 12 -4 17 4 6 -3 16 -14
22 -12 6 -20 7 -20 1z"/>
<path d="M3126 4507 c5 -23 3 -29 -15 -34 -23 -6 -28 -19 -8 -26 6 -3 0 -6
-15 -6 -20 -1 -26 3 -22 14 4 9 0 15 -9 15 -10 0 -15 -8 -14 -21 1 -18 7 -20
44 -17 l43 3 -4 -55 c-3 -37 -2 -47 4 -30 4 14 8 42 9 63 1 20 6 37 11 37 6 0
10 5 10 12 0 9 -3 9 -12 0 -19 -19 -33 -14 -15 6 14 15 14 20 1 42 l-14 25 6
-28z"/>
<path d="M3240 4305 c0 -8 2 -15 4 -15 2 0 6 7 10 15 3 8 1 15 -4 15 -6 0 -10
-7 -10 -15z"/>
<path d="M3120 4295 c0 -8 5 -15 10 -15 6 0 10 7 10 15 0 8 -4 15 -10 15 -5 0
-10 -7 -10 -15z"/>
<path d="M3208 4277 c-2 -19 1 -34 7 -34 5 0 10 15 11 34 1 43 -13 43 -18 0z"/>
<path d="M3180 4281 c0 -6 5 -13 10 -16 6 -3 10 1 10 9 0 9 -4 16 -10 16 -5 0
-10 -4 -10 -9z"/>
<path d="M3236 4273 c6 -4 14 -15 17 -23 5 -11 6 -9 4 4 -1 11 -9 21 -17 23
-10 3 -11 2 -4 -4z"/>
<path d="M3340 4240 c-27 -9 -26 -10 6 -14 12 -1 21 3 21 11 0 7 -1 13 -1 12
-1 -1 -12 -5 -26 -9z"/>
<path d="M3240 4229 l-45 -7 48 1 c26 1 47 -1 47 -5 0 -5 -20 -8 -45 -8 -27 0
-45 -5 -45 -11 0 -8 21 -10 71 -5 49 5 75 4 85 -5 11 -9 14 -8 14 5 0 9 -8 16
-20 16 -12 0 -31 6 -43 13 -15 9 -36 11 -67 6z"/>
<path d="M3402 4220 c0 -14 2 -19 5 -12 2 6 2 18 0 25 -3 6 -5 1 -5 -13z"/>
<path d="M3380 4194 c0 -21 -4 -33 -10 -29 -5 3 -10 1 -10 -4 0 -6 7 -11 15
-11 11 0 15 11 15 40 0 22 -2 40 -5 40 -3 0 -5 -16 -5 -36z"/>
<path d="M2981 4134 c0 -11 3 -14 6 -6 3 7 2 16 -1 19 -3 4 -6 -2 -5 -13z"/>
<path d="M3378 4133 c6 -2 18 -2 25 0 6 3 1 5 -13 5 -14 0 -19 -2 -12 -5z"/>
<path d="M3368 4113 c7 -3 16 -2 19 1 4 3 -2 6 -13 5 -11 0 -14 -3 -6 -6z"/>
<path d="M7902 4030 c0 -14 2 -19 5 -12 2 6 2 18 0 25 -3 6 -5 1 -5 -13z"/>
<path d="M3292 3875 c0 -16 2 -22 5 -12 2 9 2 23 0 30 -3 6 -5 -1 -5 -18z"/>
<path d="M3600 3550 c0 -6 4 -10 9 -10 5 0 12 -8 14 -17 4 -14 5 -13 6 3 0 12
-6 24 -14 28 -8 3 -15 1 -15 -4z"/>
<path d="M3688 3383 c6 -2 18 -2 25 0 6 3 1 5 -13 5 -14 0 -19 -2 -12 -5z"/>
<path d="M3791 3074 c0 -11 3 -14 6 -6 3 7 2 16 -1 19 -3 4 -6 -2 -5 -13z"/>
<path d="M3811 3074 c0 -11 3 -14 6 -6 3 7 2 16 -1 19 -3 4 -6 -2 -5 -13z"/>
<path d="M3771 3064 c0 -11 3 -14 6 -6 3 7 2 16 -1 19 -3 4 -6 -2 -5 -13z"/>
<path d="M3846 3067 c3 -10 9 -15 12 -12 3 3 0 11 -7 18 -10 9 -11 8 -5 -6z"/>
<path d="M7878 3073 c7 -3 16 -2 19 1 4 3 -2 6 -13 5 -11 0 -14 -3 -6 -6z"/>
<path d="M4008 2853 c7 -3 16 -2 19 1 4 3 -2 6 -13 5 -11 0 -14 -3 -6 -6z"/>
<path d="M7565 2839 c-11 -16 -1 -19 13 -3 7 8 8 14 3 14 -5 0 -13 -5 -16 -11z"/>
<path d="M4092 2770 c0 -19 2 -27 5 -17 2 9 2 25 0 35 -3 9 -5 1 -5 -18z"/>
<path d="M7501 2664 c0 -11 3 -14 6 -6 3 7 2 16 -1 19 -3 4 -6 -2 -5 -13z"/>
<path d="M4118 2663 c6 -2 18 -2 25 0 6 3 1 5 -13 5 -14 0 -19 -2 -12 -5z"/>
<path d="M7481 2654 c0 -11 3 -14 6 -6 3 7 2 16 -1 19 -3 4 -6 -2 -5 -13z"/>
<path d="M7182 2550 c0 -14 2 -19 5 -12 2 6 2 18 0 25 -3 6 -5 1 -5 -13z"/>
<path d="M7183 2450 c0 -41 2 -58 4 -37 2 20 2 54 0 75 -2 20 -4 3 -4 -38z"/>
<path d="M4790 2269 c0 -5 5 -7 10 -4 6 3 10 8 10 11 0 2 -4 4 -10 4 -5 0 -10
-5 -10 -11z"/>
<path d="M4691 2254 c0 -11 3 -14 6 -6 3 7 2 16 -1 19 -3 4 -6 -2 -5 -13z"/>
<path d="M5341 2044 c0 -11 3 -14 6 -6 3 7 2 16 -1 19 -3 4 -6 -2 -5 -13z"/>
<path d="M5851 1824 c0 -11 3 -14 6 -6 3 7 2 16 -1 19 -3 4 -6 -2 -5 -13z"/>
</g>
</svg>
